<svg width="512" height="192" viewBox="0 0 512 192" fill="none" xmlns="http://www.w3.org/2000/svg">
  <g opacity="0.98">
    <path d="M0 134C28 120 57 111 90 108C125 105 155 109 184 119C212 129 237 130 264 122C291 114 319 103 351 102C393 101 434 117 512 152V192H0V134Z" fill="#EEF3FB"/>
    <path d="M0 149C31 132 63 123 98 122C133 121 160 130 188 141C214 151 240 154 267 150C298 145 330 132 367 133C410 133 453 149 512 176V192H0V149Z" fill="#E2EAF7"/>
    <path d="M120 192L213 115C230 101 244 95 258 95C273 95 286 102 300 117L374 192H120Z" fill="#C9D8EE"/>
    <path d="M187 192L279 54C286 44 296 39 307 39C318 39 328 44 335 54L430 192H187Z" fill="#B9CBE6"/>
    <path d="M247 192L330 54C337 44 347 40 356 40C365 40 375 45 382 55L468 192H247Z" fill="#ADC1E0"/>
    <path d="M307 39L282 100L321 82L307 39Z" fill="#F3F7FD"/>
    <path d="M307 39L332 84L355 92L335 54L307 39Z" fill="#DDE7F6"/>
    <path d="M225 124L188 159L219 149L225 124Z" fill="#DDE7F6"/>
    <path d="M370 128L406 171L380 161L370 128Z" fill="#D5E1F3"/>
    <path d="M0 168C39 150 72 144 105 147C137 150 165 160 192 171C219 182 246 188 277 190C313 191 348 185 384 177C421 169 463 169 512 182V192H0V168Z" fill="#AFC4E2"/>
    <path d="M0 186C34 178 67 175 98 177C134 180 164 187 191 192H0V186Z" fill="#A4BADB"/>
    <path d="M292 192C334 179 374 170 416 169C452 168 483 174 512 186V192H292Z" fill="#A4BADB"/>
    <path d="M0 146C39 117 76 102 118 100C156 97 186 107 214 121" stroke="#F7FAFF" stroke-width="10" stroke-linecap="round" opacity="0.55"/>
    <path d="M387 110C409 101 431 100 456 106C475 111 494 120 512 133" stroke="#F7FAFF" stroke-width="10" stroke-linecap="round" opacity="0.45"/>
  </g>
</svg>
