<svg xmlns="http://www.w3.org/2000/svg" shape-rendering="geometricPrecision" text-rendering="geometricPrecision" image-rendering="optimizeQuality" fill-rule="evenodd" clip-rule="evenodd" viewBox="0 0 450 512.31"><path fill="#262F36" fill-rule="nonzero" d="M380.59 231.66c24.61 37.04 42.28 81.49 53.61 126.11 13.01 51.22 17.74 102.92 15.09 143.99l-.64 9.96-446.78.59-.82-9.78c-3.38-40.84 1.38-91.97 14.53-142.75 11.75-45.38 30.25-90.63 55.69-128.2l3.19-4.72H377.4l3.19 4.8z"/><path fill="#C9977D" d="M371.7 237.55c51.38 77.33 71.77 188.73 66.95 263.54l-426.95.57c-6.25-75.34 16.03-186.8 68.37-264.11 32.81 127.75 233.04 167.21 291.63 0z"/><path fill="#262F36" fill-rule="nonzero" d="M134.22 82.08c-12.08 10.87-22.34 23.73-30.86 38.33l-.01-.01-.31.49c-3.14 4.74-9.52 6.04-14.27 2.9-11.93-7.93-23.18-17.78-30.45-30.26-7.17-12.31-9.8-25.63-8.13-38.43 1.66-12.8 7.62-24.95 17.62-34.92C86.36 1.67 113.13-5.51 138.49 4.59c16.61 6.61 31.06 19.8 40.6 36.17l-.01.01.13.23c.31.47.59.98.82 1.52 2.27 5.21-.11 11.28-5.32 13.55-15.26 6.68-28.74 15.43-40.49 26.01z"/><path fill="#957668" d="M166.48 40.12C148.62 14.64 117.13.64 87.9 17.67c-32.37 18.86-37.51 56.71-10.55 83.74 3.58 3.58 7.51 6.89 11.6 9.93 8.83-15.96 20.1-30.37 33.35-42.54 12.99-11.93 27.86-21.71 44.18-28.68z"/><path fill="#262F36" fill-rule="nonzero" d="M98.85 95.54a32.658 32.658 0 01-13.57-26.51c0-18.01 14.72-32.73 32.73-32.73 11.22 0 21.45 5.81 27.38 14.86A159.335 159.335 0 00122.3 68.8c-8.72 8.01-16.58 16.99-23.45 26.74z"/><path fill="#79655D" d="M136.87 56.91c-3.99-6.19-10.95-10.29-18.86-10.29-12.37 0-22.41 10.04-22.41 22.41 0 7.54 3.73 14.21 9.43 18.28 5.29-6.62 11.06-12.81 17.27-18.51 4.62-4.25 9.48-8.22 14.57-11.89z"/><path fill="#262F36" fill-rule="nonzero" d="M316.54 82.08c-11.76-10.59-25.24-19.33-40.5-26.01-26.16-11.41 50.69-91.97 106.91-35.9 10 9.98 15.95 22.13 17.62 34.93 3.29 25.35-9.75 46.17-28.6 61.38-3.25 2.63-6.61 5.06-9.99 7.31-13.9 9.2-35.36-32.63-45.44-41.71z"/><path fill="#957668" d="M284.08 40.41C301.9 14.75 333.52.58 362.85 17.67c32.37 18.86 37.52 56.71 10.55 83.74-3.71 3.72-7.81 7.15-12.08 10.29-8.8-15.89-20.02-30.27-33.19-42.43-12.95-11.97-27.79-21.81-44.05-28.86z"/><path fill="#262F36" fill-rule="nonzero" d="M305.11 51.55c5.89-9.27 16.25-15.25 27.63-15.25 18.01 0 32.73 14.72 32.73 32.73 0 10.93-5.41 20.86-14.06 26.86a168.446 168.446 0 00-23.28-26.62 160.53 160.53 0 00-23.02-17.72z"/><path fill="#79655D" d="M313.62 57.34c3.94-6.43 11.03-10.72 19.12-10.72 12.38 0 22.41 10.04 22.41 22.41 0 7.76-3.94 14.6-9.93 18.62a166.198 166.198 0 00-17.09-18.38c-4.61-4.26-9.45-8.24-14.51-11.93z"/><path fill="#262F36" fill-rule="nonzero" d="M382.88 205.58c-.6 11.03-2.25 22.18-4.99 33.43-.08.39-.19.78-.33 1.16-19.46 51.5-45.08 80.24-72.29 96.11-27.32 15.94-55.86 18.7-81.37 18.47-25.19-.22-52.67-2.64-79.4-18.32-26.52-15.56-51.8-43.99-72.35-95.97-.18-.43-.32-.88-.42-1.35-2.4-11.26-3.88-22.57-4.36-33.95-.49-11.35.03-22.68 1.61-34C74.55 131.32 93.9 94.89 122.3 68.8c27.28-25.06 62.89-40.63 102.69-40.63 39.96 0 75.75 15.79 103.14 41.1 28.57 26.4 47.98 63.19 53.42 103.23 1.48 10.92 1.94 21.95 1.33 33.08z"/><path fill="#C9977D" d="M367.02 236.58c5.2-21.25 6.26-42.07 3.49-62.47-9.9-72.99-69.61-134.41-145.46-134.41-75.5 0-134.76 60.47-144.93 133.13-2.97 21.25-1.93 42.5 2.59 63.75 98.85 236.43 155.97 118.93 284.31 0z"/><path fill="#D7B3A1" d="M340.51 100.03c-26.56-36.1-67.82-60.33-115.46-60.33-75.5 0-134.76 60.47-144.93 133.13-2.97 21.25-1.93 42.5 2.59 63.75l8.04 17.45c-4.53-21.25-4.05-48.19-1.07-69.44C99.84 111.93 159.1 51.46 234.61 51.46c42.25 0 79.49 19.07 105.9 48.57z"/><path fill="#957668" d="M367.02 236.58c5.2-21.25 6.26-42.07 3.49-62.47-4.6-33.94-19.98-65.37-42.74-89.29 32.4 46.83 39.65 108.79 9.62 160.8-38.94 67.45-124.22 89.01-194.2 60.34-18.62-7.63-59.63-57.85-68.79-58.98 5.38 57.63 107.16 124.27 146.9 124.63 47.66.43 204.16-33.8 145.72-135.03z"/><path fill="#262F36" fill-rule="nonzero" d="M310.19 499.67a5.874 5.874 0 01-2.53 4.77 10.044 10.044 0 01-9.54 6.94v.04H153.83c-4.13 0-7.67-2.49-9.22-6.04-2.7-.5-4.76-2.86-4.8-5.71-.14-10.79-7.7-29.34-19.35-46.52-9.73-14.34-22.21-27.46-35.43-33.89a5.876 5.876 0 01-2.74-7.85 5.88 5.88 0 017.85-2.75c15.23 7.41 29.27 22.04 40.04 37.9l1.2 1.8c6.28-44.92 25.99-75.09 50.43-90.62 12.95-8.23 27.27-12.36 41.7-12.42 14.38-.06 28.77 3.94 41.95 11.96 25.32 15.41 46.2 45.77 53.44 90.66l.93-1.38c10.76-15.86 24.81-30.49 40.03-37.9a5.885 5.885 0 015.12 10.6c-13.22 6.43-25.7 19.55-35.43 33.89-11.66 17.18-19.22 35.73-19.36 46.52zM171.67 135.54c10.81 0 19.57 8.77 19.57 19.58 0 10.8-8.76 19.57-19.57 19.57s-19.57-8.77-19.57-19.57c0-10.81 8.76-19.58 19.57-19.58z"/><path fill="#E6E0DD" d="M171.67 144.75c5.72 0 10.36 4.64 10.36 10.37 0 5.72-4.64 10.36-10.36 10.36s-10.36-4.64-10.36-10.36c0-5.73 4.64-10.37 10.36-10.37z"/><path fill="#262F36" fill-rule="nonzero" d="M278.84 135.54c10.81 0 19.57 8.77 19.57 19.58 0 10.8-8.76 19.57-19.57 19.57s-19.58-8.77-19.58-19.57c0-10.81 8.77-19.58 19.58-19.58z"/><path fill="#E6E0DD" d="M278.84 144.75c5.72 0 10.36 4.64 10.36 10.37 0 5.72-4.64 10.36-10.36 10.36-5.73 0-10.37-4.64-10.37-10.36 0-5.73 4.64-10.37 10.37-10.37z"/><path fill="#262F36" fill-rule="nonzero" d="M282.47 247.56c-7.82 27.01-28.74 44.83-57.37 44.89-29.05.07-48.78-18.12-56.64-44.69-8.35-28.22-5.77-60.58 12.55-84.52 11.17-14.6 26.8-23.63 44.24-23.63s33.08 9.03 44.25 23.63c17.91 23.4 21.04 56.44 12.97 84.32z"/><path fill="#E5CDC1" d="M263.18 265.78c9.29-11.35 13.86-27.8 14.31-48.71 0-37.69-23.39-68.24-52.24-68.24s-52.23 30.55-52.23 68.24c.88 21.21 5.65 37.51 14.45 48.68 18.69 23.72 56.9 23.01 75.71.03z"/><path fill="#262F36" d="M194.12 213.75c1-9.28 10.22-13.03 20.22-14.26 7.37-.91 15.17-.45 20.41.18 13.37 1.62 21.88 6.13 21.97 13.75.22 18.75-15.21 27.64-31.56 29.03-15.56 1.32-32.78-12.49-31.04-28.7z"/><path fill="#262F36" fill-rule="nonzero" d="M268.62 261.35c2.21 2.1 2.29 5.59.19 7.8-2.09 2.2-5.58 2.29-7.79.19-.42-.4-4.14-.66-8.55-.96-14.54-1.01-34.12-2.36-33.1-26.01a5.51 5.51 0 015.74-5.27c3.04.13 5.4 2.71 5.27 5.75-.55 12.9 12.86 13.83 22.83 14.52 6.57.45 12.12.83 15.41 3.98z"/><path fill="#262F36" fill-rule="nonzero" d="M188.68 269.34a5.524 5.524 0 01-7.8-.19c-2.09-2.21-2.01-5.7.2-7.8 3.29-3.14 8.84-3.53 15.41-3.98 9.97-.69 23.38-1.62 22.83-14.52-.13-3.04 2.23-5.62 5.27-5.75a5.517 5.517 0 015.74 5.27c1.02 23.65-18.56 25-33.1 26.01-4.41.3-8.13.56-8.55.96zM144.52 318.12a5.889 5.889 0 011.5 8.18 5.889 5.889 0 01-8.18 1.5c-14.33-9.86-27.7-22.8-39.31-38.54-10.97-14.87-20.38-32.26-27.52-51.93a5.874 5.874 0 013.52-7.53 5.87 5.87 0 017.53 3.52c6.75 18.56 15.61 34.97 25.95 48.98 10.82 14.66 23.24 26.69 36.51 35.82zM314.29 326.94a5.87 5.87 0 01-8.2-1.38c-1.88-2.64-1.26-6.31 1.38-8.2 13.11-9.32 25.64-21.42 36.35-36.16 9.73-13.38 17.95-28.93 23.72-46.52 1-3.09 4.32-4.78 7.41-3.78a5.898 5.898 0 013.78 7.42c-6.18 18.85-14.97 35.48-25.37 49.79-11.48 15.8-24.95 28.79-39.07 38.83zM143.36 293.43a5.17 5.17 0 01-.5-7.28 5.149 5.149 0 017.27-.5c22.82 19.86 49.2 29.92 76 29.87 26.59-.05 53.72-10.03 78.33-30.25a5.13 5.13 0 017.23.71 5.13 5.13 0 01-.7 7.23c-26.52 21.78-55.91 32.53-84.86 32.59-29.31.05-58.04-10.85-82.77-32.37z"/><path fill="#65AB8D" d="M298.12 501.37H153.83c-.37-3.94-1.91-8.26-3.84-12.74-1.81-7.39-5.11-15.96-9.57-24.72-.26-1.71-.34-3.37-.19-4.97 12.9-139.41 154.8-136.88 170.05 0 .13 1.13.16 2.26.12 3.39-7.21 13.79-11.63 27.24-11.94 36.58-.14.82-.26 1.64-.34 2.46z"/><path fill="#528B72" d="M298.12 501.37h-73.34V355.35c38.86.55 77.9 35.39 85.5 103.59.13 1.13.16 2.26.12 3.39-7.21 13.79-11.63 27.24-11.94 36.58-.14.82-.26 1.64-.34 2.46z"/><path fill="#262F36" fill-rule="nonzero" d="M217.51 501.53v-41.32l-17.99 16.71-10.02-10.77 28.01-26.01v-10.45l-17.99 16.71-10.02-10.77 28.01-26.01v-11.56l-17.99 16.7L189.5 404l35.23-32.72 37.09 32.57-9.67 11.06-19.91-17.48v12.09l29.58 25.97-9.67 11.05-19.91-17.47v10.96l29.58 25.98-9.67 11.05-19.91-17.48v41.95z"/></svg>