<svg xmlns="http://www.w3.org/2000/svg" shape-rendering="geometricPrecision" text-rendering="geometricPrecision" image-rendering="optimizeQuality" fill-rule="evenodd" clip-rule="evenodd" viewBox="0 0 512 449.772"><path fill="#FDFDFD" d="M310.47 353.116c16.865-6.56 31.045-17.114 41.555-31.506 27.022-37.003 40.867-82.622 40.794-125.94-.042-24.516-4.557-48.261-13.682-69.23-9.041-20.776-22.604-38.804-40.814-52.103-21.024-15.353-48.373-24.506-82.278-24.449-39.394.066-69.89 12.874-91.936 33.363-15.124 14.056-26.341 31.766-33.779 51.488-7.509 19.911-11.177 41.847-11.139 64.156.08 47.534 16.933 96.649 49.248 131.42 10.5 11.298 22.877 19.83 36.765 25.018 13.284 4.962 28.028 6.9 43.918 5.314a6.557 6.557 0 011.626-.068c22.109 1.83 42.366-.711 59.722-7.463z"/><path fill-rule="nonzero" d="M362.564 329.283c-12.04 16.487-28.208 28.547-47.387 36.008-19.102 7.43-41.135 10.28-64.974 8.375-17.83 1.751-34.469-.472-49.552-6.106-15.864-5.927-29.927-15.591-41.778-28.343-34.599-37.228-52.641-89.661-52.726-140.322-.041-23.877 3.897-47.387 11.956-68.76 8.131-21.56 20.449-40.971 37.105-56.45 24.345-22.625 57.816-36.769 100.837-36.841 36.853-.062 66.773 10.029 89.952 26.955 20.199 14.751 35.185 34.614 45.11 57.423 9.842 22.615 14.712 48.148 14.756 74.448.077 45.94-14.618 94.337-43.299 133.613zm-52.094 23.833c16.865-6.56 31.045-17.114 41.555-31.506 27.022-37.003 40.867-82.622 40.794-125.94-.042-24.516-4.557-48.261-13.682-69.23-9.041-20.776-22.604-38.804-40.814-52.103-21.024-15.353-48.373-24.506-82.278-24.449-39.394.066-69.89 12.874-91.936 33.363-15.124 14.056-26.341 31.766-33.779 51.488-7.509 19.911-11.177 41.847-11.139 64.156.08 47.534 16.933 96.649 49.248 131.42 10.5 11.298 22.877 19.83 36.765 25.018 13.284 4.962 28.028 6.9 43.918 5.314a6.557 6.557 0 011.626-.068c22.109 1.83 42.366-.711 59.722-7.463z"/><path fill="#ECC7AE" d="M348.874 325.648a86.804 86.804 0 003.151-4.038c13.482-18.462 23.684-39.073 30.513-60.476 11.214-35.143 13.333-72.361 5.952-105.652-7.298-32.909-23.895-61.928-50.177-81.121-6.634-4.844-13.892-9.07-21.782-12.584 3.525 10.642 5.821 20.681 7.035 30.202 1.744 13.692 1.257 26.256-1.038 37.952-3.361 17.126-9.27 29.674-15.041 41.929-3.96 8.409-7.852 16.674-10.613 26.017-4.199 14.214-5.499 30.719-3.386 46.593 1.917 14.406 6.65 28.224 14.586 39.192 6.47 8.942 14.861 16.922 24.522 26.111 5.102 4.852 10.545 10.03 16.278 15.875z"/><path fill-rule="nonzero" d="M362.564 329.283a104.733 104.733 0 01-4.209 5.412 103.439 103.439 0 01-4.58 5.105 6.53 6.53 0 01-9.234.178l-.229-.231c-7.345-7.791-14.308-14.413-20.72-20.511-10.159-9.662-18.983-18.054-26.107-27.9-9.254-12.791-14.747-28.703-16.94-45.178-2.352-17.676-.896-36.085 3.795-51.964 3.055-10.34 7.157-19.048 11.33-27.909 5.414-11.499 10.959-23.272 14.018-38.861 2.049-10.441 2.486-21.635.935-33.809-1.575-12.366-5.193-25.801-11.238-40.546a6.527 6.527 0 018.291-8.605c14.366 4.616 27.128 11.193 38.31 19.359 29.019 21.191 47.283 52.958 55.241 88.845 7.873 35.508 5.644 75.105-6.258 112.405-7.247 22.711-18.081 44.594-32.405 64.21zm-13.69-3.635a86.804 86.804 0 003.151-4.038c13.482-18.462 23.684-39.073 30.513-60.476 11.214-35.143 13.333-72.361 5.952-105.652-7.298-32.909-23.895-61.928-50.177-81.121-6.634-4.844-13.892-9.07-21.782-12.584 3.525 10.642 5.821 20.681 7.035 30.202 1.744 13.692 1.257 26.256-1.038 37.952-3.361 17.126-9.27 29.674-15.041 41.929-3.96 8.409-7.852 16.674-10.613 26.017-4.199 14.214-5.499 30.719-3.386 46.593 1.917 14.406 6.65 28.224 14.586 39.192 6.47 8.942 14.861 16.922 24.522 26.111 5.102 4.852 10.545 10.03 16.278 15.875z"/><path fill="#F2A99B" d="M295.39 313.254h-78.77c-12.829 0-26.895 5.528-37.44 14.337-9.285 7.757-15.686 17.979-15.686 28.966v9.929c0 9.171 3.757 17.514 9.809 23.566s14.394 9.809 23.566 9.809H315.14c9.172 0 17.515-3.757 23.566-9.809 6.052-6.052 9.809-14.395 9.809-23.566v-9.929c0-10.986-6.401-21.208-15.686-28.965-10.546-8.809-24.611-14.338-37.439-14.338z"/><path fill-rule="nonzero" d="M216.62 300.158h78.77c15.811 0 33.025 6.712 45.829 17.408 12.071 10.084 20.393 23.783 20.393 38.991v9.929c0 12.786-5.227 24.406-13.646 32.825-8.42 8.42-20.04 13.646-32.826 13.646H196.869c-12.787 0-24.407-5.226-32.826-13.646-8.419-8.419-13.645-20.039-13.645-32.825v-9.929c0-15.208 8.321-28.908 20.392-38.991 12.804-10.696 30.018-17.408 45.83-17.408zm78.77 13.096h-78.77c-12.829 0-26.895 5.528-37.44 14.337-9.285 7.757-15.686 17.979-15.686 28.966v9.929c0 9.171 3.757 17.514 9.809 23.566s14.394 9.809 23.566 9.809H315.14c9.172 0 17.515-3.757 23.566-9.809 6.052-6.052 9.809-14.395 9.809-23.566v-9.929c0-10.986-6.401-21.208-15.686-28.965-10.546-8.809-24.611-14.338-37.439-14.338z"/><path fill="#F4F1EF" d="M341.298 183.578c-10.164 0-18.403 8.239-18.403 18.403 0 10.164 8.239 18.403 18.403 18.403 10.164 0 18.403-8.239 18.403-18.403 0-10.164-8.239-18.403-18.403-18.403z"/><path fill-rule="nonzero" d="M341.298 190.126a11.818 11.818 0 00-8.383 3.472 11.818 11.818 0 00-3.472 8.383c0 3.274 1.327 6.238 3.472 8.383a11.818 11.818 0 008.383 3.472c3.274 0 6.238-1.327 8.383-3.472a11.818 11.818 0 003.472-8.383c0-3.274-1.327-6.238-3.472-8.383a11.818 11.818 0 00-8.383-3.472zm2.685-12.953a78.328 78.328 0 0116.273 1.814c5.326 1.162 10.717 2.89 16.544 5.147a6.527 6.527 0 01-4.707 12.175 119.99 119.99 0 00-7.233-2.557 24.937 24.937 0 011.389 8.229 24.868 24.868 0 01-7.309 17.642 24.866 24.866 0 01-17.642 7.309 24.868 24.868 0 01-17.642-7.309 24.868 24.868 0 01-7.309-17.642 24.877 24.877 0 017.308-17.643 24.877 24.877 0 0117.643-7.308c.907 0 1.803.049 2.685.143z"/><path fill="#F6C78F" d="M159.978 321.61a88.737 88.737 0 003.151 4.038c5.732-5.845 11.177-11.023 16.278-15.875 9.662-9.188 18.052-17.169 24.522-26.111 7.936-10.968 12.669-24.786 14.587-39.192 2.112-15.874.813-32.379-3.387-46.593-2.76-9.343-6.652-17.608-10.612-26.017-5.771-12.255-11.68-24.803-15.041-41.929-2.296-11.696-2.782-24.26-1.038-37.952 1.213-9.521 3.51-19.56 7.034-30.202-7.89 3.514-15.148 7.74-21.781 12.584-26.283 19.193-42.88 48.212-50.177 81.121-7.382 33.291-5.262 70.509 5.952 105.652 6.829 21.403 17.031 42.014 30.512 60.476z"/><path fill-rule="nonzero" d="M159.978 321.61a88.737 88.737 0 003.151 4.038c5.732-5.845 11.177-11.023 16.278-15.875 9.662-9.188 18.052-17.169 24.522-26.111 7.936-10.968 12.669-24.786 14.587-39.192 2.112-15.874.813-32.379-3.387-46.593-2.76-9.343-6.652-17.608-10.612-26.017-5.771-12.255-11.68-24.803-15.041-41.929-2.296-11.696-2.782-24.26-1.038-37.952 1.213-9.521 3.51-19.56 7.034-30.202-7.89 3.514-15.148 7.74-21.781 12.584-26.283 19.193-42.88 48.212-50.177 81.121-7.382 33.291-5.262 70.509 5.952 105.652 6.829 21.403 17.031 42.014 30.512 60.476zm-6.329 13.085a104.733 104.733 0 01-4.209-5.412c-14.324-19.616-25.159-41.499-32.406-64.21-11.901-37.3-14.131-76.897-6.258-112.405 7.958-35.888 26.222-67.654 55.241-88.845 11.182-8.166 23.945-14.743 38.31-19.359a6.527 6.527 0 018.291 8.605c-6.045 14.745-9.662 28.18-11.237 40.546-1.552 12.174-1.115 23.369.935 33.809 3.059 15.589 8.603 27.362 14.018 38.861 4.173 8.861 8.274 17.57 11.329 27.909 4.691 15.879 6.147 34.288 3.795 51.964-2.192 16.475-7.686 32.387-16.939 45.178-7.124 9.845-15.948 18.238-26.108 27.901-6.411 6.097-13.375 12.719-20.718 20.511l-.23.23a6.53 6.53 0 01-9.234-.178 103.439 103.439 0 01-4.58-5.105zM310.488 334.454a7.338 7.338 0 11-.115 14.675c-4.322-.033-7.646 1.435-9.867 3.998-2.633 3.038-4.06 7.703-4.129 13.436a7.339 7.339 0 01-14.676-.173c.111-9.251 2.773-17.191 7.698-22.873 5.03-5.805 12.154-9.133 21.089-9.063zm-107.105 14.675a7.338 7.338 0 11-.115-14.675c8.935-.07 16.059 3.258 21.089 9.062 4.926 5.684 7.587 13.623 7.698 22.874a7.337 7.337 0 01-7.252 7.424 7.337 7.337 0 01-7.423-7.251c-.07-5.733-1.497-10.398-4.13-13.436-2.221-2.563-5.545-4.031-9.867-3.998z"/><path fill="#ECC7AE" d="M362.416 77.902c4.555 4.853 8.762 10.11 12.668 15.715 13.187-10.956 21.046-23.203 23.993-34.894 1.445-5.731 1.701-11.308.818-16.495-.861-5.057-2.829-9.784-5.854-13.947-2.929-4.03-6.872-7.547-11.79-10.352.17.697.325 1.39.466 2.082 1.908 9.398 1.066 18.319-2.737 26.232-3.783 7.872-10.407 14.562-20.066 19.515a66.238 66.238 0 01-7.009 3.079 115.896 115.896 0 019.511 9.065z"/><path fill-rule="nonzero" d="M368.007 106.602c-4.601-7.259-9.607-13.889-15.106-19.748-5.479-5.838-11.467-10.953-18.054-15.213a6.526 6.526 0 012.516-11.917c6.517-1.342 12.042-3.232 16.617-5.578 6.988-3.583 11.679-8.213 14.234-13.531 2.537-5.277 3.059-11.42 1.713-18.046-.85-4.189-2.447-8.578-4.755-13.08A6.52 6.52 0 01372.56.197l.004-.019c14.357 3.62 25.155 10.919 32.065 20.43 4.209 5.792 6.952 12.391 8.157 19.471 1.184 6.952.865 14.33-1.022 21.816-4.038 16.015-15.287 32.612-34.395 46.497a6.54 6.54 0 01-9.359-1.792l-.003.002zm-5.591-28.7c4.555 4.853 8.762 10.11 12.668 15.715 13.187-10.956 21.046-23.203 23.993-34.894 1.445-5.731 1.701-11.308.818-16.495-.861-5.057-2.829-9.784-5.854-13.947-2.929-4.03-6.872-7.547-11.79-10.352.17.697.325 1.39.466 2.082 1.908 9.398 1.066 18.319-2.737 26.232-3.783 7.872-10.407 14.562-20.066 19.515a66.238 66.238 0 01-7.009 3.079 115.896 115.896 0 019.511 9.065z"/><path fill="#A27661" d="M393.389 127.261a178.63 178.63 0 017.854 26.217c13.171 3.941 25.36 6.243 36.435 6.693 11.676.475 22.073-1.128 31.023-5.069 9.802-4.317 18.695-11.077 24.318-18.777 4.617-6.321 6.94-13.194 5.429-19.567-2.341-9.874-10.935-16.206-21.639-20.032-16.619-5.94-37.812-5.909-50.928-3.643-7.564 1.306-15.454 3.276-23.642 5.855-6.124 1.929-12.402 4.194-18.827 6.775a179.758 179.758 0 019.977 21.548z"/><path fill-rule="nonzero" d="M389.199 159.795c-1.883-9.662-4.548-18.954-7.985-27.88-3.442-8.94-7.696-17.621-12.752-26.042a6.527 6.527 0 013.046-9.357l-.002-.004c9.231-3.958 18.188-7.329 26.845-10.056 8.733-2.751 17.185-4.858 25.33-6.265 14.735-2.545 38.634-2.547 57.527 4.206 14.59 5.216 26.432 14.385 29.978 29.342 2.467 10.408-.841 20.966-7.629 30.26-7.001 9.586-17.815 17.89-29.587 23.074-10.801 4.756-23.128 6.699-36.804 6.143-13.26-.539-27.823-3.45-43.516-8.433a6.519 6.519 0 01-4.436-4.991l-.015.003zm4.19-32.534a178.63 178.63 0 017.854 26.217c13.171 3.941 25.36 6.243 36.435 6.693 11.676.475 22.073-1.128 31.023-5.069 9.802-4.317 18.695-11.077 24.318-18.777 4.617-6.321 6.94-13.194 5.429-19.567-2.341-9.874-10.935-16.206-21.639-20.032-16.619-5.94-37.812-5.909-50.928-3.643-7.564 1.306-15.454 3.276-23.642 5.855-6.124 1.929-12.402 4.194-18.827 6.775a179.758 179.758 0 019.977 21.548z"/><path fill-rule="nonzero" d="M376.566 120.269a6.528 6.528 0 0110.743-7.417c5.096 7.362 14.93 13.409 25.88 16.183 9.894 2.507 20.493 2.261 29.026-2.217a6.522 6.522 0 016.036 11.561c-11.615 6.097-25.522 6.564-38.234 3.342-13.876-3.515-26.581-11.526-33.451-21.452z"/><path fill="#ECC7AE" d="M136.916 93.617c3.906-5.605 8.113-10.862 12.669-15.715a115.736 115.736 0 019.511-9.065 66.166 66.166 0 01-7.01-3.079c-9.659-4.953-16.283-11.643-20.066-19.515-3.803-7.913-4.644-16.835-2.736-26.232.14-.692.295-1.385.465-2.082-4.917 2.805-8.86 6.322-11.789 10.352-3.025 4.163-4.993 8.889-5.854 13.947-.883 5.187-.627 10.764.818 16.495 2.947 11.691 10.806 23.938 23.992 34.894z"/><path fill-rule="nonzero" d="M136.916 93.617c3.906-5.605 8.113-10.862 12.669-15.715a115.736 115.736 0 019.511-9.065 66.166 66.166 0 01-7.01-3.079c-9.659-4.953-16.283-11.643-20.066-19.515-3.803-7.913-4.644-16.835-2.736-26.232.14-.692.295-1.385.465-2.082-4.917 2.805-8.86 6.322-11.789 10.352-3.025 4.163-4.993 8.889-5.854 13.947-.883 5.187-.627 10.764.818 16.495 2.947 11.691 10.806 23.938 23.992 34.894zm22.184-6.763c-5.5 5.859-10.505 12.489-15.107 19.748l-.003-.002a6.539 6.539 0 01-9.358 1.792c-19.109-13.886-30.358-30.482-34.395-46.497-1.887-7.487-2.206-14.865-1.022-21.816 1.205-7.081 3.947-13.679 8.157-19.472 6.91-9.509 17.708-16.809 32.065-20.429l.004.019a6.52 6.52 0 017.387 9.292c-2.308 4.502-3.905 8.891-4.755 13.08-1.346 6.626-.823 12.769 1.713 18.046 2.555 5.318 7.247 9.948 14.234 13.531 4.575 2.346 10.101 4.236 16.617 5.578a6.527 6.527 0 012.517 11.917c-6.588 4.26-12.575 9.375-18.054 15.213z"/><path fill="#A27661" d="M110.758 153.478a178.626 178.626 0 017.853-26.217 179.764 179.764 0 019.978-21.548c-6.425-2.581-12.704-4.846-18.827-6.775-8.189-2.579-16.078-4.549-23.642-5.855-13.116-2.266-34.309-2.298-50.928 3.643-10.704 3.826-19.299 10.158-21.639 20.032-1.512 6.373.811 13.246 5.428 19.567 5.624 7.7 14.516 14.46 24.318 18.777 8.951 3.941 19.347 5.544 31.024 5.069 11.074-.45 23.264-2.752 36.435-6.693z"/><path fill-rule="nonzero" d="M110.758 153.478a178.626 178.626 0 017.853-26.217 179.764 179.764 0 019.978-21.548c-6.425-2.581-12.704-4.846-18.827-6.775-8.189-2.579-16.078-4.549-23.642-5.855-13.116-2.266-34.309-2.298-50.928 3.643-10.704 3.826-19.299 10.158-21.639 20.032-1.512 6.373.811 13.246 5.428 19.567 5.624 7.7 14.516 14.46 24.318 18.777 8.951 3.941 19.347 5.544 31.024 5.069 11.074-.45 23.264-2.752 36.435-6.693zm20.028-21.563c-3.437 8.926-6.102 18.218-7.985 27.88l-.015-.003a6.517 6.517 0 01-4.435 4.991c-15.694 4.983-30.256 7.894-43.517 8.433-13.676.556-26.002-1.387-36.803-6.143-11.773-5.184-22.586-13.488-29.588-23.074-6.788-9.294-10.096-19.852-7.628-30.26 3.546-14.957 15.389-24.126 29.978-29.342 18.893-6.753 42.792-6.751 57.526-4.206 8.145 1.407 16.597 3.514 25.33 6.265 8.657 2.727 17.614 6.098 26.846 10.056l-.002.004a6.528 6.528 0 013.046 9.357c-5.057 8.421-9.311 17.102-12.753 26.042z"/><path fill-rule="nonzero" d="M124.692 112.852a6.527 6.527 0 1110.743 7.417c-6.871 9.926-19.575 17.937-33.452 21.452-12.711 3.222-26.618 2.755-38.233-3.342a6.522 6.522 0 016.036-11.561c8.532 4.478 19.132 4.724 29.026 2.217 10.949-2.775 20.784-8.821 25.88-16.183z"/><path fill="#A27661" d="M307.136 412.973H206.432a47.257 47.257 0 006.699 7.979c.1.095.195.193.288.294 10.06 9.425 26.1 14.775 42.333 15.409 15.824.618 31.572-3.272 41.789-12.269a49.804 49.804 0 008.066-9.081 54.435 54.435 0 001.529-2.332z"/><path fill-rule="nonzero" d="M307.136 412.973H206.432a47.257 47.257 0 006.699 7.979c.1.095.195.193.288.294 10.06 9.425 26.1 14.775 42.333 15.409 15.824.618 31.572-3.272 41.789-12.269a49.804 49.804 0 008.066-9.081 54.435 54.435 0 001.529-2.332zm-111.458-13.096H317.77v.02a6.526 6.526 0 016.036 9.009c-2.072 5.005-4.55 9.619-7.456 13.817-2.97 4.291-6.351 8.128-10.164 11.486-12.847 11.312-31.977 16.229-50.894 15.491-19.169-.749-38.388-7.333-50.801-18.97a6.45 6.45 0 01-.414-.366 60.131 60.131 0 01-8.564-10.213c-2.245-3.38-4.111-6.963-5.652-10.719a6.548 6.548 0 015.817-9.555z"/><path fill="#F4F1EF" d="M172.403 183.578c10.163 0 18.403 8.239 18.403 18.403 0 10.164-8.24 18.403-18.403 18.403-10.164 0-18.403-8.239-18.403-18.403 0-10.164 8.239-18.403 18.403-18.403z"/><path fill-rule="nonzero" d="M172.403 177.03a24.877 24.877 0 0117.643 7.308 24.877 24.877 0 017.308 17.643 24.868 24.868 0 01-7.309 17.642 24.868 24.868 0 01-17.642 7.309 24.877 24.877 0 01-17.643-7.308 24.877 24.877 0 01-7.308-17.643c0-2.883.49-5.653 1.39-8.229a119.084 119.084 0 00-7.234 2.557 6.527 6.527 0 01-4.707-12.175c5.827-2.257 11.218-3.985 16.544-5.147a78.328 78.328 0 0116.273-1.814 25.332 25.332 0 012.685-.143zm8.383 16.568a11.818 11.818 0 00-8.383-3.472 11.818 11.818 0 00-8.383 3.472 11.818 11.818 0 00-3.472 8.383c0 3.274 1.327 6.238 3.472 8.383a11.818 11.818 0 008.383 3.472c3.274 0 6.238-1.327 8.383-3.472a11.818 11.818 0 003.472-8.383c0-3.274-1.327-6.238-3.472-8.383z"/></svg>