<svg xmlns="http://www.w3.org/2000/svg" shape-rendering="geometricPrecision" text-rendering="geometricPrecision" image-rendering="optimizeQuality" fill-rule="evenodd" clip-rule="evenodd" viewBox="0 0 512 502.911"><path fill="#F1CFB9" d="M153.173 253.194c-8.315-23.132-25.364-43.292-47.458-56.197-20.815-12.157-46.104-17.833-72.779-13.441.594 8.458 3.054 18.786 7.602 29.207 5.282 12.103 13.342 24.168 24.506 33.327 10.997 9.022 25.106 15.26 42.679 15.93 13.124.501 28.219-2.07 45.45-8.826z"/><path fill-rule="nonzero" d="M153.173 253.194c-8.315-23.132-25.364-43.292-47.458-56.197-20.815-12.157-46.104-17.833-72.779-13.441.594 8.458 3.054 18.786 7.602 29.207 5.282 12.103 13.342 24.168 24.506 33.327 10.997 9.022 25.106 15.26 42.679 15.93 13.124.501 28.219-2.07 45.45-8.826zm-40.141-68.731c27.2 15.887 47.68 41.597 56.066 70.873l-.013.004a7.241 7.241 0 01-4.07 8.617c-21.902 9.559-41.116 13.162-57.802 12.525-21.1-.805-38.085-8.331-51.357-19.219-13.105-10.752-22.493-24.747-28.589-38.715-6.426-14.721-9.24-29.595-8.921-40.697a7.253 7.253 0 015.718-7.362c32.592-7.121 63.686-.792 88.968 13.974z"/><path fill="#F1CFB9" d="M405.432 196.997c-22.094 12.905-39.143 33.065-47.458 56.197 17.231 6.756 32.325 9.327 45.45 8.826 17.572-.67 31.681-6.908 42.679-15.93 11.164-9.159 19.223-21.224 24.505-33.327 4.549-10.421 7.008-20.749 7.603-29.207-26.675-4.392-51.964 1.284-72.779 13.441z"/><path fill-rule="nonzero" d="M342.049 255.336c8.386-29.276 28.866-54.986 56.066-70.873 25.282-14.766 56.376-21.095 88.968-13.974a7.253 7.253 0 015.718 7.362c.319 11.102-2.495 25.976-8.921 40.697-6.096 13.968-15.484 27.963-28.589 38.715-13.272 10.888-30.257 18.414-51.357 19.219-16.686.637-35.9-2.966-57.802-12.525a7.241 7.241 0 01-4.07-8.617l-.013-.004zm63.383-58.339c-22.094 12.905-39.143 33.065-47.458 56.197 17.231 6.756 32.325 9.327 45.45 8.826 17.572-.67 31.681-6.908 42.679-15.93 11.164-9.159 19.223-21.224 24.505-33.327 4.549-10.421 7.008-20.749 7.603-29.207-26.675-4.392-51.964 1.284-72.779 13.441z"/><path fill="#CA8F70" d="M244.535 446.498c2.28-1.578 4.542-3.541 6.774-5.926l.027-.029a6.541 6.541 0 019.575 0c2.24 2.399 4.512 4.371 6.801 5.956 9.248 6.402 19.387 6.778 29.35 3.591l.003.008.023-.008c10.765-3.444 21.476-10.97 30.902-19.779 8.26-7.718 15.451-16.359 20.836-24.138 11.845-17.107 22.173-37.715 28.752-59.222 5.817-19.019 8.691-38.738 7.054-57.32-2.959-33.572-18.761-62.927-41.598-84.085-23.589-21.855-54.671-34.974-86.846-34.974-32.186 0-63.31 13.126-86.932 34.991-22.859 21.158-38.685 50.507-41.642 84.068-1.637 18.582 1.237 38.301 7.055 57.32 6.578 21.507 16.907 42.115 28.751 59.222 5.385 7.779 12.576 16.419 20.835 24.137 9.419 8.803 20.136 16.327 30.929 19.78 9.964 3.187 20.103 2.812 29.351-3.592z"/><path fill-rule="nonzero" d="M256.123 454.04a52.003 52.003 0 01-4.164 3.21c-13.055 9.038-27.104 9.653-40.769 5.282-12.835-4.106-25.191-12.692-35.844-22.647-8.969-8.382-16.799-17.795-22.678-26.288-12.545-18.12-23.497-39.989-30.492-62.858-6.297-20.585-9.402-41.986-7.618-62.234 3.253-36.925 20.675-69.223 45.84-92.516 26.008-24.073 60.302-38.525 95.79-38.525 35.48 0 69.732 14.444 95.704 38.507 25.144 23.296 42.542 55.601 45.797 92.534 1.783 20.249-1.322 41.65-7.619 62.235-6.995 22.869-17.947 44.738-30.492 62.857-5.879 8.493-13.709 17.907-22.679 26.289-10.639 9.941-22.99 18.52-35.845 22.638l.002.008c-13.664 4.371-27.713 3.757-40.769-5.281a52.433 52.433 0 01-4.164-3.211zm-11.588-7.542c2.28-1.578 4.542-3.541 6.774-5.926l.027-.029a6.541 6.541 0 019.575 0c2.24 2.399 4.512 4.371 6.801 5.956 9.248 6.402 19.387 6.778 29.35 3.591l.003.008.023-.008c10.765-3.444 21.476-10.97 30.902-19.779 8.26-7.718 15.451-16.359 20.836-24.138 11.845-17.107 22.173-37.715 28.752-59.222 5.817-19.019 8.691-38.738 7.054-57.32-2.959-33.572-18.761-62.927-41.598-84.085-23.589-21.855-54.671-34.974-86.846-34.974-32.186 0-63.31 13.126-86.932 34.991-22.859 21.158-38.685 50.507-41.642 84.068-1.637 18.582 1.237 38.301 7.055 57.32 6.578 21.507 16.907 42.115 28.751 59.222 5.385 7.779 12.576 16.419 20.835 24.137 9.419 8.803 20.136 16.327 30.929 19.78 9.964 3.187 20.103 2.812 29.351-3.592z"/><path fill="#F1CFB9" d="M383.249 278.991c-.463-2.673-.995-5.27-1.592-7.788-14.983-6.198-28.74-7.413-40.744-4.776-9.418 2.068-17.802 6.52-24.882 12.796-7.206 6.388-13.105 14.683-17.416 24.309-8.225 18.367-10.63 41.486-5.351 65.518 2.835 12.906 7.264 25.543 12.661 37.805 4.485 10.189 9.596 20.061 14.999 29.582 4.179-3.35 8.159-7.023 11.86-10.826 6.258-6.428 11.731-13.211 16.042-19.438 11.845-17.107 22.173-37.715 28.752-59.222 5.817-19.019 8.691-38.738 7.054-57.32a128.269 128.269 0 00-1.383-10.64z"/><path fill-rule="nonzero" d="M393.63 265.223a141.027 141.027 0 012.522 11.567 140.87 140.87 0 011.537 11.715c1.783 20.249-1.322 41.65-7.619 62.235-6.995 22.869-17.947 44.738-30.492 62.857-4.703 6.794-10.651 14.171-17.424 21.128-5.946 6.108-12.523 11.906-19.454 16.734a6.548 6.548 0 01-9.622-2.502c-6.97-11.854-13.564-24.174-19.134-36.828-5.73-13.018-10.443-26.484-13.48-40.315-5.885-26.788-3.107-52.777 6.221-73.606 5.064-11.308 12.072-21.122 20.693-28.765 8.749-7.754 19.117-13.257 30.77-15.816 15.278-3.356 32.687-1.631 51.423 6.76a6.504 6.504 0 012.615 2.113l.267.342c.569.728.959 1.54 1.177 2.381zm-10.381 13.768c-.463-2.673-.995-5.27-1.592-7.788-14.983-6.198-28.74-7.413-40.744-4.776-9.418 2.068-17.802 6.52-24.882 12.796-7.206 6.388-13.105 14.683-17.416 24.309-8.225 18.367-10.63 41.486-5.351 65.518 2.835 12.906 7.264 25.543 12.661 37.805 4.485 10.189 9.596 20.061 14.999 29.582 4.179-3.35 8.159-7.023 11.86-10.826 6.258-6.428 11.731-13.211 16.042-19.438 11.845-17.107 22.173-37.715 28.752-59.222 5.817-19.019 8.691-38.738 7.054-57.32a128.269 128.269 0 00-1.383-10.64z"/><path fill="#806157" d="M227.948 465.114c-7.672.291-15.786-1.432-24.418-5.515 4.628 8.814 12.336 16.141 21.602 21.373 8.505 4.801 18.325 7.826 28.331 8.629 9.896.795 19.891-.602 28.857-4.627 10.295-4.622 19.344-12.813 25.462-25.268-8.552 3.899-16.57 5.737-24.085 5.632-10.499-.147-19.776-3.967-27.933-11.158-8.376 6.637-17.569 10.546-27.816 10.934z"/><path fill-rule="nonzero" d="M196.407 440.034c11.802 8.715 22.053 12.366 31.08 12.024 8.735-.331 16.682-4.514 24.049-11.513a6.536 6.536 0 019.241.231l.099.106.004-.004c6.716 7.357 14.34 11.283 22.971 11.403 9.202.129 19.876-3.862 32.166-12.376a6.533 6.533 0 0110.074 6.858l.012.003c-6.097 26.179-20.761 42.192-38.458 50.138-11.078 4.974-23.262 6.713-35.206 5.754-11.833-.95-23.518-4.567-33.707-10.32-17.613-9.944-30.753-26.302-32.718-46.443a6.533 6.533 0 0110.393-5.861zm31.541 25.08c-7.672.291-15.786-1.432-24.418-5.515 4.628 8.814 12.336 16.141 21.602 21.373 8.505 4.801 18.325 7.826 28.331 8.629 9.896.795 19.891-.602 28.857-4.627 10.295-4.622 19.344-12.813 25.462-25.268-8.552 3.899-16.57 5.737-24.085 5.632-10.499-.147-19.776-3.967-27.933-11.158-8.376 6.637-17.569 10.546-27.816 10.934z"/><path fill="#F1CFB9" d="M130.59 271.203a128.981 128.981 0 00-2.976 18.428c-1.637 18.582 1.237 38.301 7.055 57.32 6.578 21.507 16.907 42.115 28.751 59.222 4.311 6.227 9.784 13.01 16.042 19.438 3.701 3.803 7.681 7.476 11.86 10.826 5.403-9.521 10.514-19.393 14.999-29.582 5.397-12.262 9.826-24.899 12.661-37.805 5.279-24.032 2.874-47.151-5.351-65.518-4.311-9.626-10.21-17.921-17.416-24.309-7.08-6.276-15.464-10.728-24.881-12.796-12.005-2.637-25.762-1.422-40.744 4.776z"/><path fill-rule="nonzero" d="M130.59 271.203a128.981 128.981 0 00-2.976 18.428c-1.637 18.582 1.237 38.301 7.055 57.32 6.578 21.507 16.907 42.115 28.751 59.222 4.311 6.227 9.784 13.01 16.042 19.438 3.701 3.803 7.681 7.476 11.86 10.826 5.403-9.521 10.514-19.393 14.999-29.582 5.397-12.262 9.826-24.899 12.661-37.805 5.279-24.032 2.874-47.151-5.351-65.518-4.311-9.626-10.21-17.921-17.416-24.309-7.08-6.276-15.464-10.728-24.881-12.796-12.005-2.637-25.762-1.422-40.744 4.776zm-14.496 5.587a141.434 141.434 0 012.521-11.567 6.532 6.532 0 011.178-2.381l.268-.342a6.494 6.494 0 012.614-2.113c18.737-8.391 36.145-10.116 51.423-6.76 11.653 2.559 22.021 8.062 30.77 15.816 8.621 7.643 15.629 17.457 20.693 28.765 9.328 20.829 12.106 46.818 6.222 73.606-3.038 13.831-7.751 27.297-13.481 40.315-5.569 12.654-12.164 24.974-19.134 36.828a6.548 6.548 0 01-9.622 2.502c-6.93-4.828-13.508-10.626-19.454-16.734-6.773-6.957-12.72-14.334-17.424-21.128-12.545-18.119-23.497-39.988-30.492-62.857-6.297-20.585-9.402-41.986-7.618-62.235.344-3.908.859-7.817 1.536-11.715z"/><circle cx="177.502" cy="318.663" r="23.488"/><circle cx="334.554" cy="318.663" r="23.488"/><path fill-rule="nonzero" d="M326.723 186.231c-3.585 2.769-5.679-.624-8.448-4.208-2.769-3.586-5.164-6.008-1.58-8.777 11.798-9.094 21.179-19.352 28.421-30.839-2.799-4.34-5.489-8.773-8.019-13.387a175.903 175.903 0 01-9.651-20.581 8.211 8.211 0 014.66-10.638 8.211 8.211 0 0110.637 4.66c2.644 6.75 5.589 12.889 8.751 18.653a190.939 190.939 0 002.435 4.301c7.318-17.483 10.875-37.439 11.378-60.023a8.197 8.197 0 1116.39.321c-.571 25.683-4.81 48.397-13.602 68.362a132.455 132.455 0 01-5.727 11.474 8.203 8.203 0 01-.887 1.553c-8.545 14.735-19.99 27.745-34.758 39.129zm-130.017-11.909c3.62 2.715-2.6 1.502-5.316 5.123-2.716 3.621-.898 10.704-4.519 7.989-15.486-11.629-27.419-24.999-36.265-40.215a8.178 8.178 0 01-1.031-1.807 132.295 132.295 0 01-5.287-10.518c-9.052-20.183-13.406-43.166-13.985-69.181a8.197 8.197 0 1116.391-.321c.503 22.61 4.056 42.574 11.367 60.041.825-1.414 1.64-2.852 2.445-4.319 3.162-5.764 6.107-11.903 8.751-18.653a8.213 8.213 0 0115.298 5.978 176.065 176.065 0 01-9.651 20.581c-2.534 4.62-5.227 9.056-8.029 13.402 7.524 11.928 17.363 22.537 29.831 31.9zM33.877 85.955a8.22 8.22 0 01-1.021-2.563c-8.534-22.062-11.672-47.455-7.281-76.39A8.222 8.222 0 0134.927.093a8.222 8.222 0 016.91 9.352c-2.841 18.723-2.202 35.704 1.205 51.034a315.26 315.26 0 002.437-5.034c4.146-8.76 7.798-17.462 10.666-25.121a8.197 8.197 0 0115.362 5.721 349.249 349.249 0 01-11.18 26.406c-3.173 6.705-6.623 13.412-10.226 19.702 8.794 20.138 22.816 36.951 39.816 50.674a443.134 443.134 0 0112.481 6.042c-9.322-17.43-14.869-34.889-16.657-52.348-2.831-27.63 3.739-54.996 19.63-81.975a8.197 8.197 0 1114.141 8.292C105.438 36.731 99.6 60.772 102.067 84.85c2.445 23.869 13.04 48.029 31.852 72.378 13.305 9.045 26.411 19.956 38.708 33.676 3.017 3.372-.983 5.386-4.356 8.403-3.372 3.017-4.839 5.896-7.856 2.524-29.787-33.235-65.873-49.166-96.801-62.819-25.356-11.194-47.45-20.948-61.671-37.755a8.21 8.21 0 1112.534-10.606c8.237 9.736 20.761 17.089 35.608 24.191-6.454-8.861-11.935-18.481-16.208-28.887zm445.269-2.565a8.236 8.236 0 01-1.023 2.567c-4.273 10.405-9.753 20.024-16.208 28.885 14.847-7.101 27.371-14.455 35.609-24.191a8.21 8.21 0 0112.534 10.606c-14.222 16.807-36.315 26.561-61.672 37.754-31.042 13.705-67.287 29.705-97.194 63.297-3.017 3.389-6.137.743-9.527-2.273-3.39-3.018-5.767-5.264-2.749-8.654 12.426-13.957 25.702-25.026 39.189-34.184 18.797-24.338 29.384-48.488 31.828-72.346 2.468-24.079-3.371-48.12-17.445-72.013a8.196 8.196 0 1114.141-8.292c15.892 26.979 22.462 54.345 19.631 81.976-1.789 17.457-7.334 34.916-16.656 52.343a445.892 445.892 0 0112.482-6.041c16.999-13.722 31.021-30.534 39.814-50.672-3.604-6.289-7.053-12.996-10.226-19.701a349.249 349.249 0 01-11.18-26.406 8.196 8.196 0 1115.362-5.721c2.868 7.659 6.52 16.361 10.666 25.121.797 1.684 1.61 3.365 2.436 5.033 3.407-15.329 4.047-32.31 1.205-51.033a8.222 8.222 0 0116.262-2.443c4.391 28.934 1.254 54.327-7.279 76.388z"/><circle fill="#fff" cx="177.502" cy="318.663" r="9.676"/><circle fill="#fff" cx="334.554" cy="318.663" r="9.676"/><path fill="#D0B2A2" d="M225.13 452.012c8.997.519 17.981-2.667 26.206-11.469a6.541 6.541 0 019.575 0c8.225 8.802 17.208 11.988 26.205 11.469 10.6-.611 21.572-6.176 31.648-13.867-2.028-12.693-9.088-24.015-19.367-32.375-11.313-9.199-26.513-14.822-43.274-14.822-16.76 0-31.961 5.623-43.274 14.822-10.279 8.359-17.338 19.682-19.367 32.375 10.076 7.691 21.047 13.256 31.648 13.867z"/><path fill-rule="nonzero" d="M256.123 454.051c-9.955 8.531-20.765 11.648-31.71 11.017-14.709-.848-29.265-8.633-42-19.016a6.524 6.524 0 01-2.388-5.631l-.019-.001c1.538-17.709 10.706-33.49 24.6-44.788 13.579-11.043 31.685-17.792 51.517-17.792 19.833 0 37.938 6.75 51.517 17.792 13.894 11.299 23.062 27.079 24.6 44.788a6.547 6.547 0 01-2.814 5.962c-12.638 10.217-27.041 17.847-41.593 18.686-10.944.631-21.754-2.486-31.71-11.017zm-30.993-2.039c8.997.519 17.981-2.667 26.206-11.469a6.541 6.541 0 019.575 0c8.225 8.802 17.208 11.988 26.205 11.469 10.6-.611 21.572-6.176 31.648-13.867-2.028-12.693-9.088-24.015-19.367-32.375-11.313-9.199-26.513-14.822-43.274-14.822-16.76 0-31.961 5.623-43.274 14.822-10.279 8.359-17.338 19.682-19.367 32.375 10.076 7.691 21.047 13.256 31.648 13.867z"/><path fill="#806157" d="M256.151 389.405c-7.988.056-16.025 1.897-24.109 5.506.466 5.882 3.067 11.193 7.026 15.151 4.381 4.381 10.419 7.101 17.055 7.101 6.636 0 12.674-2.72 17.055-7.101 4.034-4.034 6.659-9.471 7.05-15.487-8.06-3.507-16.087-5.226-24.077-5.17z"/><path fill-rule="nonzero" d="M223.017 384.749c10.968-5.513 21.995-8.322 33.083-8.4 11.265-.079 22.483 2.671 33.652 8.279a6.526 6.526 0 013.608 5.837h.027v2.542c0 10.254-4.191 19.572-10.941 26.322-6.75 6.751-16.069 10.942-26.323 10.942-10.254 0-19.572-4.191-26.322-10.942-6.751-6.75-10.942-16.068-10.942-26.322v-2.156a6.557 6.557 0 014.158-6.102zm33.134 4.656c-7.988.056-16.025 1.897-24.109 5.506.466 5.882 3.067 11.193 7.026 15.151 4.381 4.381 10.419 7.101 17.055 7.101 6.636 0 12.674-2.72 17.055-7.101 4.034-4.034 6.659-9.471 7.05-15.487-8.06-3.507-16.087-5.226-24.077-5.17z"/><path fill-rule="nonzero" d="M249.57 426.241a6.553 6.553 0 0113.107 0v17.119a6.554 6.554 0 11-13.107 0v-17.119z"/></svg>