<svg xmlns="http://www.w3.org/2000/svg" shape-rendering="geometricPrecision" text-rendering="geometricPrecision" image-rendering="optimizeQuality" fill-rule="evenodd" clip-rule="evenodd" viewBox="0 0 512 388.84"><path fill="#E8BC9C" d="M367.98 84.85c-28.75-30.72-68.46-49.72-112.31-49.72-43.86 0-83.57 19-112.31 49.72-28.86 30.84-46.7 73.49-46.7 120.66 0 47.16 17.84 89.82 46.7 120.65 28.74 30.73 68.45 49.73 112.31 49.73 43.85 0 83.56-19 112.31-49.73 28.85-30.83 46.7-73.49 46.7-120.65 0-47.17-17.85-89.82-46.7-120.66z"/><path fill="#1E1510" fill-rule="nonzero" d="M255.67 22.18c47.54 0 90.58 20.59 121.72 53.87 31.04 33.17 50.24 78.95 50.24 129.46 0 50.51-19.2 96.28-50.24 129.45-31.14 33.29-74.18 53.88-121.72 53.88-47.54 0-90.58-20.59-121.72-53.88-31.04-33.17-50.24-78.94-50.24-129.45 0-50.51 19.2-96.29 50.24-129.46 31.14-33.28 74.18-53.87 121.72-53.87zm112.31 62.67c-28.75-30.72-68.46-49.72-112.31-49.72-43.86 0-83.57 19-112.31 49.72-28.86 30.84-46.7 73.49-46.7 120.66 0 47.16 17.84 89.82 46.7 120.65 28.74 30.73 68.45 49.73 112.31 49.73 43.85 0 83.56-19 112.31-49.73 28.85-30.83 46.7-73.49 46.7-120.65 0-47.17-17.85-89.82-46.7-120.66z"/><path fill="#EFD6C6" d="M367.98 84.85c-28.75-30.72-68.46-49.72-112.31-49.72-43.86 0-83.57 19-112.32 49.72-28.64 30.62-46.43 72.88-46.69 119.63 4.25-39.53 21.02-74.95 45.95-101.6 28.94-30.92 68.91-50.05 113.06-50.05 44.14 0 84.12 19.13 113.06 50.05 24.93 26.65 41.7 62.07 45.94 101.6-.25-46.75-18.04-89.01-46.69-119.63z"/><path fill="#D4AB92" d="M97.5 223.21c3.86 40.08 20.66 76.03 45.85 102.95 28.75 30.73 68.46 49.73 112.32 49.73 43.85 0 83.56-19 112.31-49.73 25.2-26.92 42-62.87 45.85-102.95-8.44 17.17-19.25 32.79-31.96 46.38-32.3 34.52-76.92 55.87-126.2 55.87s-93.9-21.35-126.2-55.87c-12.71-13.59-23.52-29.21-31.97-46.38z"/><path fill="#D9A09A" d="M90.61 154.79c7.61-27.45 19.82-51.38 36.74-71.48 15.09-17.94 33.87-32.77 56.41-44.29-5.96-7.09-12.72-13.69-20.24-18.5-9.18-5.87-19.62-9.12-31.26-7.23-8.83 1.42-17.59 5.72-27.11 10.39-7.83 3.84-16.15 7.93-25.8 11.14-5.9 1.97-11.55 3.4-17.16 4.82-13.7 3.49-27.24 6.93-36.63 15.86-2.01 1.9-3.87 4.09-5.54 6.62-1.71 2.58-3.23 5.5-4.52 8.81-2.03 5.24-2.98 11.17-2.72 17.84.25 6.8 1.76 14.37 4.63 22.78l2.3 4.82c7.35 15.24 17.23 35.75 19.22 51.57.37 2.89.54 4.86.71 6.82.95 10.91 1.85 21.31 18.42 19.5 2.6-.28 5.29-.91 7.92-1.83 2.69-.94 5.36-2.2 7.88-3.72 10.93-6.6 12.28-13.3 14.19-22.77.69-3.41 1.44-7.12 2.56-11.15z"/><path fill="#1E1510" fill-rule="nonzero" d="M90.61 154.79c7.61-27.45 19.82-51.38 36.74-71.48 15.09-17.94 33.87-32.77 56.41-44.29-5.96-7.09-12.72-13.69-20.24-18.5-9.18-5.87-19.62-9.12-31.26-7.23-8.83 1.42-17.59 5.72-27.11 10.39-7.83 3.84-16.15 7.93-25.8 11.14-5.9 1.97-11.55 3.4-17.16 4.82-13.7 3.49-27.24 6.93-36.63 15.86-2.01 1.9-3.87 4.09-5.54 6.62-1.71 2.58-3.23 5.5-4.52 8.81-2.03 5.24-2.98 11.17-2.72 17.84.25 6.8 1.76 14.37 4.63 22.78l2.3 4.82c7.35 15.24 17.23 35.75 19.22 51.57.37 2.89.54 4.86.71 6.82.95 10.91 1.85 21.31 18.42 19.5 2.6-.28 5.29-.91 7.92-1.83 2.69-.94 5.36-2.2 7.88-3.72 10.93-6.6 12.28-13.3 14.19-22.77.69-3.41 1.44-7.12 2.56-11.15zm46.47-63.3c-15.7 18.66-27.07 40.98-34.2 66.69-1.04 3.78-1.73 7.15-2.35 10.25-2.57 12.74-4.39 21.73-20.09 31.21a55.7 55.7 0 01-10.27 4.82c-3.55 1.23-7.19 2.09-10.76 2.47-29.51 3.22-30.97-13.51-32.49-31.07-.21-2.42-.43-4.88-.61-6.32-1.73-13.72-11.1-33.17-18.07-47.63l-2.42-5.01.02-.01c-.1-.21-.19-.43-.27-.66C2.15 106.38.36 97.4.05 89.22c-.32-8.44.93-16.04 3.58-22.88 1.64-4.24 3.58-7.97 5.76-11.26a51.39 51.39 0 017.39-8.82c11.84-11.25 26.97-15.1 42.27-18.98h.02c5.63-1.43 11.28-2.87 16.29-4.54 8.79-2.92 16.73-6.82 24.2-10.48 10.42-5.11 20-9.82 30.7-11.55 15.11-2.45 28.47 1.65 40.1 9.09 11.18 7.15 20.63 17.34 28.43 27.63.27.36.5.75.7 1.17 1.47 3.2.08 6.98-3.12 8.46-24.11 11.17-43.84 26.07-59.29 44.43z"/><path fill="#1E1510" fill-rule="nonzero" d="M139.09 30.06a6.383 6.383 0 017.88 4.4c.97 3.39-1 6.92-4.39 7.88-12.6 3.61-20.63 13.06-25.33 26.65-5.11 14.74-6.44 34.25-5.42 56.61a6.371 6.371 0 01-6.09 6.64 6.369 6.369 0 01-6.63-6.09c-1.09-23.82.42-44.88 6.11-61.31 6.09-17.57 16.8-29.88 33.87-34.78z"/><path fill="#B07A79" d="M384.65 83.31c16.92 20.1 29.13 44.03 36.74 71.48 1.12 4.03 1.87 7.74 2.56 11.15 1.91 9.47 3.26 16.17 14.19 22.77 2.52 1.52 5.19 2.78 7.88 3.72 2.63.92 5.32 1.55 7.92 1.83 16.57 1.81 17.47-8.59 18.42-19.5.17-1.96.34-3.93.71-6.82 1.99-15.82 11.87-36.33 19.22-51.57l2.3-4.82c2.87-8.41 4.38-15.98 4.63-22.78.26-6.67-.69-12.6-2.72-17.84-1.29-3.31-2.81-6.23-4.52-8.81a37.453 37.453 0 00-5.54-6.62c-9.39-8.93-22.93-12.37-36.63-15.85-5.61-1.43-11.26-2.86-17.16-4.83-9.65-3.21-17.97-7.3-25.8-11.14-9.52-4.67-18.28-8.97-27.11-10.39-11.64-1.89-22.08 1.36-31.26 7.23-7.52 4.81-14.28 11.41-20.24 18.5 22.54 11.52 41.32 26.35 56.41 44.29z"/><path fill="#1E1510" fill-rule="nonzero" d="M409.12 158.18c-7.13-25.71-18.5-48.03-34.2-66.69-15.45-18.36-35.18-33.26-59.29-44.43a6.379 6.379 0 01-3.12-8.46c.2-.42.43-.81.7-1.17 7.8-10.29 17.25-20.48 28.43-27.63 11.63-7.44 24.99-11.54 40.1-9.09 10.7 1.73 20.28 6.44 30.7 11.55 7.47 3.66 15.41 7.56 24.2 10.48 5.01 1.67 10.66 3.11 16.29 4.54h.02c15.3 3.88 30.43 7.73 42.27 18.98a51.39 51.39 0 017.39 8.82c2.18 3.29 4.12 7.02 5.76 11.26 2.65 6.84 3.9 14.44 3.58 22.88-.31 8.18-2.1 17.16-5.52 27.01-.08.23-.17.45-.27.66l.02.01-2.42 5.01c-6.97 14.46-16.34 33.91-18.07 47.63-.18 1.44-.4 3.9-.61 6.32-1.52 17.56-2.98 34.29-32.49 31.07-3.57-.38-7.21-1.24-10.76-2.47a55.7 55.7 0 01-10.27-4.82c-15.7-9.48-17.52-18.47-20.09-31.21-.62-3.1-1.31-6.47-2.35-10.25zm-24.47-74.87c16.92 20.1 29.13 44.03 36.74 71.48 1.12 4.03 1.87 7.74 2.56 11.15 1.91 9.47 3.26 16.17 14.19 22.77 2.52 1.52 5.19 2.78 7.88 3.72 2.63.92 5.32 1.55 7.92 1.83 16.57 1.81 17.47-8.59 18.42-19.5.17-1.96.34-3.93.71-6.82 1.99-15.82 11.87-36.33 19.22-51.57l2.3-4.82c2.87-8.41 4.38-15.98 4.63-22.78.26-6.67-.69-12.6-2.72-17.84-1.29-3.31-2.81-6.23-4.52-8.81a37.453 37.453 0 00-5.54-6.62c-9.39-8.93-22.93-12.37-36.63-15.85-5.61-1.43-11.26-2.86-17.16-4.83-9.65-3.21-17.97-7.3-25.8-11.14-9.52-4.67-18.28-8.97-27.11-10.39-11.64-1.89-22.08 1.36-31.26 7.23-7.52 4.81-14.28 11.41-20.24 18.5 22.54 11.52 41.32 26.35 56.41 44.29z"/><path fill="#1E1510" fill-rule="nonzero" d="M369.42 42.34a6.37 6.37 0 01-4.39-7.88 6.383 6.383 0 017.88-4.4c17.07 4.9 27.78 17.21 33.87 34.78 5.69 16.43 7.2 37.49 6.11 61.31a6.369 6.369 0 01-6.63 6.09 6.371 6.371 0 01-6.09-6.64c1.02-22.36-.31-41.87-5.42-56.61-4.7-13.59-12.73-23.04-25.33-26.65z"/><path fill="#936867" d="M185.64 164.85c-8.28 0-14.93 6.65-14.93 14.93s6.65 14.94 14.93 14.94 14.93-6.66 14.93-14.94-6.65-14.93-14.93-14.93z"/><path fill="#1E1510" fill-rule="nonzero" d="M185.64 152.08c15.27 0 27.71 12.44 27.71 27.7 0 15.27-12.44 27.71-27.71 27.71-15.27 0-27.7-12.44-27.7-27.71 0-15.26 12.44-27.7 27.7-27.7zm0 12.77c-8.28 0-14.93 6.65-14.93 14.93s6.65 14.94 14.93 14.94 14.93-6.66 14.93-14.94-6.65-14.93-14.93-14.93z"/><path fill="#936867" d="M325.03 164.85c-8.28 0-14.93 6.65-14.93 14.93s6.66 14.94 14.93 14.94c8.29 0 14.94-6.65 14.94-14.94 0-8.28-6.65-14.93-14.94-14.93z"/><path fill="#1E1510" fill-rule="nonzero" d="M325.03 152.08c15.27 0 27.71 12.44 27.71 27.7 0 15.27-12.44 27.71-27.71 27.71-15.27 0-27.7-12.44-27.7-27.71 0-15.26 12.44-27.7 27.7-27.7zm0 12.77c-8.28 0-14.93 6.65-14.93 14.93s6.66 14.94 14.93 14.94c8.29 0 14.94-6.65 14.94-14.94 0-8.28-6.65-14.93-14.94-14.93zM182.16 305.06c-.65-3.45 1.63-6.78 5.09-7.43 3.45-.65 6.78 1.63 7.43 5.09 1.22 6.45 4.71 12.15 9.61 16.22 4.81 3.98 10.97 6.39 17.66 6.39 7.63 0 14.56-3.13 19.59-8.15 5.03-5.03 8.15-11.97 8.15-19.59v-11.86c-8.25-1.05-16.14-4.18-21.85-9.28-.48-.42-1.02-.94-1.6-1.54-4.45-4.58-7.82-10.84-8.95-17.25-1.22-6.95.08-14.13 5.23-19.91.3-.33.69-.73 1.16-1.18 4.13-4.02 9.89-6.98 15.76-6.98h32.47c5.88 0 11.79 3 15.96 7.03l.38.38c5.66 5.76 6.98 13.26 5.66 20.52-1.21 6.64-4.77 13.15-9.13 17.65l-.03.04.01.01-.46.46c-5.65 5.58-13.54 8.88-21.84 10.01v11.9c0 7.62 3.13 14.56 8.16 19.59 5.03 5.02 11.96 8.15 19.58 8.15 6.7 0 12.86-2.41 17.66-6.39 4.9-4.07 8.4-9.77 9.62-16.22a6.359 6.359 0 017.43-5.09c3.46.65 5.74 3.98 5.09 7.43-1.79 9.47-6.88 17.79-14 23.71-7.02 5.82-16.02 9.33-25.8 9.33-11.15 0-21.28-4.55-28.62-11.89a41.22 41.22 0 01-5.5-6.84 41.279 41.279 0 01-5.51 6.84c-7.34 7.34-17.47 11.89-28.62 11.89-9.77 0-18.77-3.51-25.79-9.33-7.13-5.92-12.22-14.24-14-23.71zm89.75-62.69h-32.47c-2.44 0-5.23 1.72-6.88 3.33l-.51.54c-2.24 2.52-2.77 5.87-2.19 9.23 2.21 12.6 14.81 18.08 26.55 17.93 11.83-.16 22.75-5.93 24.97-18.13.64-3.47.15-6.93-2.22-9.34l-.2-.2c-1.73-1.67-4.58-3.36-7.05-3.36z"/><path fill="#846160" d="M271.91 242.37h-32.47c-.91 0-1.92.24-2.93.67l-.24.12c-1.36.62-2.64 1.5-3.71 2.54l-.51.54c-2.24 2.52-2.77 5.87-2.19 9.23 2.22 12.63 14.84 18.08 26.55 17.93 7.3-.1 14.43-2.32 18.96-6.8l.31-.31.01.01c2.72-2.83 4.94-6.89 5.69-11.03.64-3.47.15-6.93-2.22-9.34l-.2-.2a13.605 13.605 0 00-3.75-2.55c-1.15-.51-2.29-.81-3.3-.81z"/><path fill="#1E1510" fill-rule="nonzero" d="M425.06 255.29c14.65-10.2 31.52-3.43 34.97 14.16 1.68 8.61-.2 18.06-4.13 25.89 3.35.46 6.6 1.82 9.55 4.39.5.4.96.84 1.37 1.32 4.42 4.68 5.87 11.16 4.61 17.97-1.06 5.76-4.18 11.9-9.08 17.05-7.37 7.74-19.63 13.59-30.17 9.05.88 6.59 1.43 11.94-2.78 19.27-2.71 4.73-6.67 8-12.16 9.28-4.05.95-8.72.63-14.07-1.25-9.28-2.53-13.47-6.33-17.51-10-3.18-2.89-6.2-5.63-16.98-5.92-.65.04-1.31.01-1.98-.09-6.2-.94-11.42-2.96-15.41-5.74-4.23-2.93-7.17-6.75-8.64-11.14-1.53-4.59-1.38-9.5.65-14.41 1.56-3.78 4.25-7.5 8.15-10.96.7-.66 1.39-1.09 2.19-1.58-3.95-1.65-7.15-4.73-9.51-8.86-5.95-10.45-5.47-26.58 1.15-36.56 4.02-6.06 9.93-9.78 16.76-9.73 4.53.03 8.15 1.4 11.02 3.64 2.61-8.44 7.88-16.66 15.12-21.7 6.59-4.59 14.1-6.12 21.04-3.58l.66.24c7.12 2.89 11.67 9.36 13.27 17.49.18.94.32 1.89.43 2.87.49-.38.98-.75 1.48-1.1z"/><path fill="#D4AB92" d="M443.18 260.79c-7.88-3.19-18.23 4.02-23.11 16.09-4.89 12.08-2.46 24.46 5.42 27.64 7.88 3.19 18.23-4.02 23.11-16.09 4.89-12.08 2.46-24.46-5.42-27.64zm-85.2 60.28c-12.59 10.95-6.99 23.32 10.14 25.92 25.43.4 20.28 11.58 37.64 16.27 7.87 2.94 12.68 1.1 15.37-3.6 2.86-4.98 2.18-9.14 1.47-14.51-2.76-20.89-8.24-38.71-20.52-41.2-17.38-7.03-29.78 8.41-44.1 17.12zm101.6-13.82c4.94 4.71 3.1 14.68-4.12 22.26-7.22 7.58-17.09 9.91-22.04 5.2-4.94-4.71-3.1-14.68 4.12-22.26 4.88-5.12 15.69-11.24 22.04-5.2zM362 266.93c-6.83-.05-12.43 8.39-12.51 18.86-.09 10.47 4.17 18.59 11 18.65 6.83.05 12.44-8.4 12.52-18.87.05-7.06-2.25-18.58-11.01-18.64zm44.3-22.07c-7.88-3.18-18.23 4.03-23.11 16.1-4.88 12.08-2.46 24.45 5.42 27.64 7.88 3.18 18.23-4.02 23.12-16.1 4.88-12.07 2.45-24.45-5.43-27.64z"/></svg>