<svg xmlns="http://www.w3.org/2000/svg" shape-rendering="geometricPrecision" text-rendering="geometricPrecision" image-rendering="optimizeQuality" fill-rule="evenodd" clip-rule="evenodd" viewBox="0 0 502 512.37"><path fill="#87C0D6" d="M10.63 466.76h490.82V311.55c0-17.45-14.28-31.74-31.73-31.74h-153.9V165.48H161.27c-88.94 0-150.64 91.7-150.64 174.55v126.73z"/><path fill="#8EB277" d="M250.58 376.29c-22.44-27.77-58.54-37.19-95.93-34.17-24.53 1.98-49.56 9.3-71.74 20.32-22.03 10.95-41.17 25.52-54.06 42.1-13.73 17.64-20.25 37.55-15.28 57.59l471.73-.25c-16.18-28.73-51.57-54.24-92.69-70.57-44.4-17.62-95.23-24.4-135.7-12.89-2.41.67-4.9-.25-6.33-2.13z"/><path fill-rule="nonzero" d="M250.58 376.29c-22.44-27.77-58.54-37.19-95.93-34.17-24.53 1.98-49.56 9.3-71.74 20.32-22.03 10.95-41.17 25.52-54.06 42.1-13.73 17.64-20.25 37.55-15.28 57.59l471.73-.25c-16.18-28.73-51.57-54.24-92.69-70.57-44.4-17.62-95.23-24.4-135.7-12.89-2.41.67-4.9-.25-6.33-2.13zm-96.85-46.01c39.72-3.21 78.37 6.69 103.69 35.72 42.37-10.82 94.27-3.67 139.56 14.31 47.74 18.95 88.43 50.11 103.31 85.16.29.72.46 1.5.46 2.33 0 3.26-2.65 5.91-5.92 5.91l-485.33.27c-2.64.17-5.18-1.45-6.03-4.09-8.38-25.59-1.01-50.78 16-72.64 13.98-17.98 34.58-33.71 58.2-45.45 23.48-11.66 50.02-19.41 76.06-21.52z"/><path fill="#ECC7AC" d="M256.76 415.79c12.89-.38 23.98-4.23 33.9-10.6 10.23-6.57 19.31-15.84 27.87-26.8 7.33-9.37 14.76-21.77 21.75-36.09 7.03-14.39 13.53-30.59 18.97-47.49 9.14-28.45 15.35-59.02 16.06-86.63.6-23.47-2.76-44.69-11.7-60.38-6.13-10.78-14.13-19.37-23.43-25.5-9.35-6.17-20.07-9.89-31.57-10.87-7.81-.67-15.96-.09-24.27 1.83-8.14 1.88-16.45 5.04-24.74 9.55-1.83.99-3.96.92-5.67 0l-.02-.02c-8.29-4.5-16.59-7.65-24.73-9.53-8.3-1.92-16.45-2.5-24.26-1.83-11.5.98-22.23 4.7-31.58 10.87-9.29 6.13-17.29 14.72-23.43 25.5-8.93 15.69-12.29 36.91-11.69 60.38.7 27.61 6.92 58.18 16.06 86.63 5.44 16.91 11.94 33.1 18.97 47.49 6.99 14.32 14.42 26.72 21.75 36.09 8.56 10.96 17.64 20.23 27.87 26.8 9.92 6.37 21.01 10.22 33.89 10.6z"/><path fill-rule="nonzero" d="M256.76 415.79c12.89-.38 23.98-4.23 33.9-10.6 10.23-6.57 19.31-15.84 27.87-26.8 7.33-9.37 14.76-21.77 21.75-36.09 7.03-14.39 13.53-30.59 18.97-47.49 9.14-28.45 15.35-59.02 16.06-86.63.6-23.47-2.76-44.69-11.7-60.38-6.13-10.78-14.13-19.37-23.43-25.5-9.35-6.17-20.07-9.89-31.57-10.87-7.81-.67-15.96-.09-24.27 1.83-8.14 1.88-16.45 5.04-24.74 9.55-1.83.99-3.96.92-5.67 0l-.02-.02c-8.29-4.5-16.59-7.65-24.73-9.53-8.3-1.92-16.45-2.5-24.26-1.83-11.5.98-22.23 4.7-31.58 10.87-9.29 6.13-17.29 14.72-23.43 25.5-8.93 15.69-12.29 36.91-11.69 60.38.7 27.61 6.92 58.18 16.06 86.63 5.44 16.91 11.94 33.1 18.97 47.49 6.99 14.32 14.42 26.72 21.75 36.09 8.56 10.96 17.64 20.23 27.87 26.8 9.92 6.37 21.01 10.22 33.89 10.6zm40.31-.62c-11.7 7.52-24.83 12.04-40.14 12.46h-.33c-15.31-.42-28.44-4.94-40.14-12.46-11.44-7.34-21.44-17.53-30.79-29.49-7.91-10.11-15.8-23.22-23.1-38.18-7.21-14.76-13.92-31.49-19.57-49.07-9.46-29.42-15.88-61.15-16.62-89.97-.65-25.5 3.16-48.82 13.23-66.52 7.06-12.41 16.37-22.36 27.23-29.53 11.05-7.28 23.65-11.67 37.1-12.82 8.97-.77 18.34-.1 27.89 2.11 8.22 1.9 16.58 4.95 24.93 9.21 8.36-4.26 16.72-7.31 24.94-9.21 9.55-2.21 18.92-2.88 27.89-2.11 13.45 1.15 26.05 5.54 37.09 12.82 10.87 7.17 20.18 17.12 27.24 29.53 10.07 17.7 13.88 41.02 13.23 66.52-.74 28.82-7.16 60.55-16.62 89.97-5.65 17.58-12.36 34.31-19.57 49.07-7.3 14.96-15.19 28.07-23.1 38.18-9.35 11.97-19.35 22.15-30.79 29.49z"/><path fill="#EBC7AB" d="M384.3 169.77c.87 4.02 1.54 8.09 2.01 12.21 8.42-16.08 16.6-28.93 24.93-39.54 4.89-6.23 9.83-11.69 14.9-16.59-6.29 1.77-12.61 3.62-18.87 5.53-11.15 3.4-22.29 7.05-33.02 10.9 4.76 8.81 7.99 18 10.05 27.49z"/><path fill-rule="nonzero" d="M375.44 205.33c.27-11.33-.44-22.41-2.75-33.05-2.27-10.48-6.12-20.51-12.15-29.92a5.941 5.941 0 011.79-8.19c.48-.31.98-.54 1.5-.69 12.83-4.78 26.41-9.28 40-13.43 16.25-4.96 32.17-9.34 46.74-13.05 3.18-.81 6.42 1.11 7.22 4.29.69 2.7-.59 5.44-2.94 6.7-12.28 8.15-23.39 17.9-34.28 31.79-11.17 14.23-22.11 32.77-33.83 58.27a5.912 5.912 0 01-7.84 2.93 5.93 5.93 0 01-3.46-5.65zm8.86-35.56c.87 4.02 1.54 8.09 2.01 12.21 8.42-16.08 16.6-28.93 24.93-39.54 4.89-6.23 9.83-11.69 14.9-16.59-6.29 1.77-12.61 3.62-18.87 5.53-11.15 3.4-22.29 7.05-33.02 10.9 4.76 8.81 7.99 18 10.05 27.49z"/><path fill="#E2A59A" d="M416.75 155.04c-9.24 12.84-17.48 27.46-25.48 43.14 1.6-.2 3.19-.41 4.76-.64 5.06-.75 9.88-1.63 14.43-2.65 20.27-4.57 40.37-14.45 55.39-28.96 12.87-12.44 21.97-28.3 24.09-47.14.33-2.95.26-5.64-.33-7.87-.45-1.69-1.2-3.12-2.33-4.18-1.78-1.67-5.29-1.88-10.13-.6-5.9 1.56-13.15 5.29-21.28 11.26-.19.16-.39.3-.6.43-15.19 9.26-27.59 22.04-38.52 37.21z"/><path fill-rule="nonzero" d="M375.97 202.26c9.71-19.68 19.61-38.08 31.17-54.14 11.77-16.33 25.2-30.16 41.77-40.3 9.36-6.88 17.97-11.23 25.23-13.15 8.95-2.37 16.3-1.17 21.22 3.44 2.88 2.69 4.72 6.02 5.72 9.79.99 3.73 1.14 7.86.65 12.19-2.45 21.83-12.9 40.12-27.66 54.38-16.61 16.05-38.75 26.96-61.01 31.98-5.05 1.13-10.16 2.08-15.31 2.84-5.25.77-10.64 1.37-16.15 1.83a5.953 5.953 0 01-6.39-5.46c-.1-1.23.19-2.4.76-3.4zm40.78-47.22c-9.24 12.84-17.48 27.46-25.48 43.14 1.6-.2 3.19-.41 4.76-.64 5.06-.75 9.88-1.63 14.43-2.65 20.27-4.57 40.37-14.45 55.39-28.96 12.87-12.44 21.97-28.3 24.09-47.14.33-2.95.26-5.64-.33-7.87-.45-1.69-1.2-3.12-2.33-4.18-1.78-1.67-5.29-1.88-10.13-.6-5.9 1.56-13.15 5.29-21.28 11.26-.19.16-.39.3-.6.43-15.19 9.26-27.59 22.04-38.52 37.21z"/><path fill="#EBC7AB" d="M127.35 181.98c.48-4.12 1.15-8.19 2.02-12.21 2.06-9.49 5.29-18.68 10.05-27.49-10.73-3.85-21.87-7.5-33.02-10.9-6.26-1.91-12.58-3.76-18.88-5.53 5.08 4.9 10.02 10.36 14.91 16.59 8.33 10.61 16.51 23.46 24.92 39.54z"/><path fill-rule="nonzero" d="M127.35 181.98c.48-4.12 1.15-8.19 2.02-12.21 2.06-9.49 5.29-18.68 10.05-27.49-10.73-3.85-21.87-7.5-33.02-10.9-6.26-1.91-12.58-3.76-18.88-5.53 5.08 4.9 10.02 10.36 14.91 16.59 8.33 10.61 16.51 23.46 24.92 39.54zm13.63-9.7c-2.32 10.64-3.03 21.72-2.75 33.05a5.93 5.93 0 01-3.46 5.65 5.924 5.924 0 01-7.85-2.93c-11.71-25.5-22.65-44.04-33.82-58.27-10.89-13.89-22-23.64-34.28-31.79-2.35-1.26-3.63-4-2.94-6.7.8-3.18 4.04-5.1 7.22-4.29 14.57 3.71 30.49 8.09 46.74 13.05 13.59 4.15 27.17 8.65 40 13.43a5.93 5.93 0 013.28 8.88c-6.02 9.41-9.87 19.44-12.14 29.92z"/><path fill="#E2A59A" d="M122.4 198.18c-8-15.68-16.24-30.3-25.48-43.14-10.93-15.17-23.33-27.95-38.52-37.21-.21-.13-.42-.27-.61-.43-8.12-5.97-15.37-9.7-21.27-11.26-4.84-1.28-8.35-1.07-10.13.6-1.13 1.06-1.89 2.49-2.33 4.18-.6 2.23-.66 4.92-.33 7.87 2.12 18.84 11.21 34.7 24.08 47.14 15.03 14.51 35.13 24.39 55.4 28.96 4.55 1.02 9.37 1.9 14.43 2.65 1.57.23 3.15.44 4.76.64z"/><path fill-rule="nonzero" d="M122.4 198.18c-8-15.68-16.24-30.3-25.48-43.14-10.93-15.17-23.33-27.95-38.52-37.21-.21-.13-.42-.27-.61-.43-8.12-5.97-15.37-9.7-21.27-11.26-4.84-1.28-8.35-1.07-10.13.6-1.13 1.06-1.89 2.49-2.33 4.18-.6 2.23-.66 4.92-.33 7.87 2.12 18.84 11.21 34.7 24.08 47.14 15.03 14.51 35.13 24.39 55.4 28.96 4.55 1.02 9.37 1.9 14.43 2.65 1.57.23 3.15.44 4.76.64zm-15.87-50.06c11.56 16.06 21.46 34.46 31.17 54.14.57 1 .85 2.17.76 3.4a5.953 5.953 0 01-6.39 5.46c-5.51-.46-10.9-1.06-16.15-1.83-5.15-.76-10.26-1.71-15.31-2.84-22.26-5.02-44.4-15.93-61.01-31.98-14.76-14.26-25.21-32.55-27.66-54.38-.49-4.33-.34-8.46.65-12.19 1-3.77 2.84-7.1 5.72-9.79 4.92-4.61 12.26-5.81 21.22-3.44 7.26 1.92 15.87 6.27 25.23 13.15 16.57 10.14 30 23.97 41.77 40.3z"/><path fill="#A87460" d="M187.49 102.68c7.98-2.33 16.03-3.33 23.85-3.4-3.51-10.59-7.86-20.69-13-30.02-11.46-20.82-26.8-37.81-45.37-47.75-18.33-9.81-40-12.79-64.4-5.8-2.06.6-4.14 1.26-6.25 1.99 18.27 3.28 34.3 11.28 47.79 24.02 16.88 15.95 29.61 39.24 37.56 69.92 6.41-4.09 13.07-7 19.82-8.96z"/><path d="M189.16 226.18c-2.56 9.07-10.9 15.72-20.79 15.72-11.93 0-21.6-9.67-21.6-21.6 0-3.39.78-6.6 2.17-9.46-4.4 1.31-9.04 3.14-13.89 5.49a5.944 5.944 0 01-7.92-2.76 5.936 5.936 0 012.77-7.92c7.15-3.46 13.98-5.95 20.41-7.43 10.78-2.47 20.49-2.09 28.82 1.41 8.5 3.57 15.35 10.25 20.21 20.33 2.14 4.42 3.89 9.51 5.21 15.27a5.931 5.931 0 01-4.46 7.1 5.925 5.925 0 01-7.1-4.45c-1.02-4.42-2.3-8.32-3.83-11.7z"/><path fill-rule="nonzero" d="M382.49 205.65a5.936 5.936 0 012.77 7.92 5.944 5.944 0 01-7.92 2.76c-4.85-2.35-9.49-4.18-13.89-5.49 1.39 2.86 2.17 6.07 2.17 9.46 0 11.93-9.67 21.6-21.6 21.6-9.89 0-18.23-6.65-20.79-15.72-1.53 3.38-2.81 7.28-3.83 11.7a5.925 5.925 0 01-7.1 4.45 5.931 5.931 0 01-4.46-7.1c1.32-5.76 3.07-10.85 5.21-15.27 4.86-10.08 11.71-16.76 20.21-20.33 8.33-3.5 18.04-3.88 28.82-1.41 6.43 1.48 13.26 3.97 20.41 7.43z"/><path fill="#E1E0E3" d="M299.45 413.02c-14.42 9.95-28.68 14.82-42.8 14.91-14.29.09-28.19-4.72-41.71-14.08-.11 10.44.84 20.69 2.94 30.59 2.2 10.36 5.66 20.38 10.48 29.89 1.11-1.5 2.11-3.23 3.01-5.16 2.39-5.12 4.01-11.52 4.96-18.94a5.928 5.928 0 016.62-5.14c2.59.33 4.58 2.29 5.06 4.72h.02c1.64 8.21 3.32 19.02 4.08 30.54.32 4.84.47 9.81.37 14.75 2.54-2.62 4.77-5.91 6.68-9.76 4.41-8.88 7.06-20.56 7.83-33.81a5.92 5.92 0 016.24-5.59c2.69.14 4.86 2.06 5.45 4.55 1.4 5.87 2.13 13.87 2.09 22.5l-.04 2.53.51-.86c3.71-6.34 6.84-13.05 9.41-20.1 2.99-8.17 5.22-16.81 6.79-25.86.88-5.12 1.55-10.35 2.01-15.68z"/><path fill-rule="nonzero" d="M299.45 413.02c-14.42 9.95-28.68 14.82-42.8 14.91-14.29.09-28.19-4.72-41.71-14.08-.11 10.44.84 20.69 2.94 30.59 2.2 10.36 5.66 20.38 10.48 29.89 1.11-1.5 2.11-3.23 3.01-5.16 2.39-5.12 4.01-11.52 4.96-18.94a5.928 5.928 0 016.62-5.14c2.59.33 4.58 2.29 5.06 4.72h.02c1.64 8.21 3.32 19.02 4.08 30.54.32 4.84.47 9.81.37 14.75 2.54-2.62 4.77-5.91 6.68-9.76 4.41-8.88 7.06-20.56 7.83-33.81a5.92 5.92 0 016.24-5.59c2.69.14 4.86 2.06 5.45 4.55 1.4 5.87 2.13 13.87 2.09 22.5l-.04 2.53.51-.86c3.71-6.34 6.84-13.05 9.41-20.1 2.99-8.17 5.22-16.81 6.79-25.86.88-5.12 1.55-10.35 2.01-15.68zm-42.84 3.07c14.64-.09 29.83-6.65 45.63-20.2a5.939 5.939 0 014.02-1.42c3.27.09 5.84 2.81 5.75 6.08-.28 10.48-1.22 20.55-2.87 30.15-1.68 9.7-4.1 19.02-7.34 27.9-2.81 7.68-6.24 15.05-10.35 22.05a126.1 126.1 0 01-14.15 19.57 5.921 5.921 0 01-5.75 2.16 5.934 5.934 0 01-4.81-6.36c-4.9 7.7-11.23 13.27-18.9 16.01-.82.29-1.72.41-2.65.3a5.937 5.937 0 01-5.25-6.54c.89-8 .87-16.51.33-24.7l-.22-2.94c-2.56 4.32-5.73 7.84-9.54 10.44-.2.15-.41.3-.64.43a5.923 5.923 0 01-8.12-2.09c-7.42-12.58-12.51-26.02-15.48-40.03-3.09-14.6-3.89-29.78-2.67-45.2.11-1.21.57-2.4 1.42-3.39a5.927 5.927 0 018.36-.65c14.23 12.2 28.64 18.52 43.23 18.43z"/><path fill="#fff" d="M325.81 115.13a68.917 68.917 0 00-17.2-3.7c-7.81-.67-15.96-.09-24.27 1.83-8.15 1.88-16.45 5.04-24.74 9.55-1.85 1-4 .92-5.71-.03-8.28-4.49-16.57-7.64-24.7-9.52-8.31-1.92-16.46-2.5-24.27-1.83-6.6.56-12.94 2.03-18.91 4.34-5.43 6.78-6.98 16.49-3.62 28.03 2.26 7.74 6.22 15.45 11.38 23.56 53.02 83.29 9.07 137.87 2.05 176.61-5.22 28.84 18.72 46.57 44.02 52.99 12.21 3.1 20.46 3.1 32.66 0 25.3-6.42 49.25-24.15 44.02-52.99-7.01-38.74-50.97-93.32 2.06-176.61 5.16-8.11 9.11-15.82 11.37-23.56 3.47-11.9 1.71-21.87-4.14-28.67z"/><path fill-rule="nonzero" d="M392.51 386.3a5.931 5.931 0 01-8.28 1.32 5.922 5.922 0 01-2.45-4.97 5.956 5.956 0 01-5.11 2.67 5.93 5.93 0 01-5.76-6.09l1.01-32.92a5.93 5.93 0 016.09-5.76c3.27.09 5.84 2.81 5.75 6.08l-1.01 32.93.15-.23 23.03-31.74a5.924 5.924 0 018.29-1.32 5.931 5.931 0 011.32 8.28l-23.03 31.75zm-113.03-68.53a5.93 5.93 0 016.11-5.74c3.27.1 5.83 2.84 5.73 6.11-.43 13.32-6.45 16.77-14.05 21.12-2.97 1.71-6.29 3.61-9.22 6.65a46.47 46.47 0 00-3.17 3.69c-.74.96-1.47 1.96-2.17 3.01v19.07c6.49 2.63 13.28 1.91 19.38-.9 7.15-3.28 13.4-9.29 17.38-16.2v-.03c.32-.55.62-1.09.89-1.61a5.925 5.925 0 017.98-2.56 5.936 5.936 0 012.56 7.99c-.38.73-.77 1.44-1.16 2.13l-.01-.01c-5.17 8.94-13.32 16.76-22.71 21.07-9.4 4.31-20.02 5.2-30.25.47-10.24 4.73-20.86 3.84-30.26-.48-9.41-4.31-17.56-12.13-22.72-21.05-.39-.69-.78-1.4-1.16-2.13a5.936 5.936 0 012.56-7.99c2.91-1.5 6.48-.35 7.98 2.56.27.52.57 1.07.89 1.61 4 6.93 10.24 12.96 17.37 16.23 6.11 2.81 12.9 3.53 19.39.9v-19.07c-.7-1.05-1.43-2.05-2.17-3.01a46.47 46.47 0 00-3.17-3.69c-2.93-3.04-6.25-4.94-9.23-6.65-7.6-4.35-13.61-7.8-14.04-21.12a5.916 5.916 0 015.73-6.11c3.27-.1 6 2.47 6.11 5.74.21 6.66 3.7 8.66 8.1 11.19 3.64 2.08 7.71 4.42 11.87 8.74.95.98 1.87 1.99 2.74 3.04.88-1.05 1.8-2.06 2.75-3.04 4.15-4.32 8.22-6.66 11.87-8.74 4.4-2.53 7.88-4.53 8.1-11.19zm-188.4 29.74c2.93 1.45 4.14 5 2.69 7.94-1.45 2.93-5 4.14-7.94 2.69l-27.97-13.88c-2.94-1.45-4.14-5-2.7-7.94 1.45-2.93 5.01-4.14 7.94-2.69l27.98 13.88zm16.93-5.23a5.932 5.932 0 01-.6 8.36 5.933 5.933 0 01-8.36-.6l-30.48-35.19c-2.15-2.47-1.87-6.22.6-8.36a5.925 5.925 0 018.36.61l30.48 35.18zm15.91-5.27a5.932 5.932 0 01-3.37 7.68 5.932 5.932 0 01-7.68-3.37l-11.69-29.72c-1.19-3.05.31-6.49 3.36-7.68 3.05-1.19 6.5.31 7.69 3.36l11.69 29.73zm332.84 83.76a5.939 5.939 0 01-8.01-2.49 5.939 5.939 0 012.49-8.01L476.27 397c2.9-1.52 6.49-.41 8.01 2.48 1.53 2.9.42 6.49-2.48 8.01l-25.04 13.28zm-7.78-10.47a5.92 5.92 0 01-7.22 4.25 5.929 5.929 0 01-4.25-7.22l9.58-37c.82-3.16 4.06-5.07 7.22-4.25 3.17.82 5.07 4.06 4.25 7.22l-9.58 37z"/><path fill="#fff" d="M178.93 214.93c-.4 2.68-1.37 5.44-2.99 7.72-1.93 2.7-4.51 4.65-7.21 4.68-2.05.03-4.17-1.05-6.13-3.74-3.8-5.21-.95-12.62 6.33-12.58 3.64.01 7.48 1.7 10 3.92zM333.46 214.93c.4 2.68 1.37 5.44 2.99 7.72 1.93 2.7 4.51 4.65 7.21 4.68 2.05.03 4.17-1.05 6.13-3.74 3.8-5.21.95-12.62-6.33-12.58-3.64.01-7.48 1.7-10 3.92z"/><path fill="#A87460" d="M325.1 102.68c-7.98-2.33-16.03-3.33-23.85-3.4 3.51-10.59 7.86-20.69 13-30.02 11.46-20.82 26.8-37.81 45.37-47.75 18.33-9.81 39.99-12.79 64.4-5.8 2.06.6 4.14 1.26 6.24 1.99-18.26 3.28-34.29 11.28-47.78 24.02-16.88 15.95-29.61 39.24-37.57 69.92-6.4-4.09-13.07-7-19.81-8.96z"/><path fill-rule="nonzero" d="M359.76 103.09c.46-.76.74-1.62.82-2.49 7.29-21.59 17.41-38.32 30.02-50.24 16.75-15.82 38.12-23.29 63.33-22.46a5.93 5.93 0 006.11-5.74c.07-2.3-1.18-4.34-3.07-5.38-10.23-5.64-20.14-9.75-29.7-12.49C413.93.47 401.28-.69 389.4.38c-.57-.02-1.14.04-1.71.18-12.05 1.32-23.29 4.96-33.64 10.5-14.13 7.57-26.51 18.65-36.93 32.14-.5.47-.93 1.02-1.25 1.64-4.37 5.84-8.39 12.1-12.02 18.71-6.83 12.4-12.35 26.03-16.43 40.29-.9 3.16.93 6.44 4.08 7.34.76.21 1.52.27 2.25.19 9.13-.64 18.72-.03 28.05 2.68 7.96 2.32 15.8 6.19 23.07 12.16 2.52 2.08 6.26 1.71 8.33-.81.62-.75 1.02-1.6 1.21-2.49h.02c1.55-6.99 3.32-13.6 5.33-19.82zm-206.93 0c-.46-.76-.74-1.62-.82-2.49-7.29-21.59-17.41-38.32-30.03-50.24-16.74-15.82-38.12-23.29-63.33-22.46-3.27.1-6-2.47-6.1-5.74a5.932 5.932 0 013.07-5.38c10.22-5.64 20.14-9.75 29.7-12.49C98.66.47 111.3-.69 123.18.38c.58-.02 1.15.04 1.71.18 12.06 1.32 23.3 4.96 33.65 10.5 14.13 7.57 26.51 18.65 36.92 32.14.51.47.94 1.02 1.26 1.64 4.37 5.84 8.38 12.1 12.02 18.71 6.83 12.4 12.35 26.03 16.43 40.29.9 3.16-.93 6.44-4.08 7.34-.76.21-1.52.27-2.26.19-9.12-.64-18.71-.03-28.05 2.68-7.96 2.32-15.79 6.19-23.06 12.16a5.917 5.917 0 01-8.33-.81c-.62-.75-1.02-1.6-1.21-2.49h-.02c-1.55-6.99-3.32-13.6-5.33-19.82zm7.36-14.72c6.02-5.83 12.68-9.74 19.84-12.11 6.51-2.16 13.38-3.01 20.5-2.88-.71-1.39-1.44-2.76-2.19-4.12-3.03-5.51-6.33-10.75-9.9-15.66-6.24.66-13.85 3.55-20.65 7.44-6.46 3.7-11.97 8.1-14.52 12.06 2.49 4.79 4.8 9.88 6.92 15.27zm46.03-2.77c-8.02-.79-15.58-.34-22.48 1.94-6.99 2.32-13.42 6.6-19.1 13.49 1.08 3.43 2.09 6.97 3.03 10.61 6.41-4.09 13.07-7 19.82-8.96 7.98-2.33 16.03-3.33 23.85-3.4-1.55-4.66-3.26-9.23-5.12-13.68zm-26.17-42.41c-5.54-6.17-11.58-11.6-18.07-16.14-5.6 2.71-11.97 6.66-17.29 11.27-3.56 3.08-6.6 6.4-8.48 9.69 3.84 4.3 7.42 9.04 10.75 14.2 3.9-4.19 9.16-8.18 14.94-11.48 5.72-3.27 12.07-5.95 18.15-7.54zm-30-23.17c-7.44-3.61-15.4-6.12-23.84-7.32-4.07 5.81-8.1 11.79-10.69 17.69a94.11 94.11 0 0112.11 9.07c2.49-3.59 5.71-7 9.31-10.1 4.05-3.51 8.62-6.69 13.11-9.34zm-37.68-8.1c-7.61.21-15.54 1.43-23.8 3.79-2.06.6-4.14 1.26-6.25 1.99 8.02 1.44 15.61 3.79 22.74 7.05 2.01-4.42 4.57-8.68 7.31-12.83zM352.4 88.37c-6.02-5.83-12.68-9.74-19.84-12.11-6.52-2.16-13.38-3.01-20.5-2.88.71-1.39 1.44-2.76 2.19-4.12 3.03-5.51 6.33-10.75 9.9-15.66 6.24.66 13.84 3.55 20.65 7.44 6.46 3.7 11.97 8.1 14.52 12.06-2.49 4.79-4.8 9.88-6.92 15.27zm-46.03-2.77c8.02-.79 15.58-.34 22.47 1.94 7 2.32 13.43 6.6 19.11 13.49-1.08 3.43-2.09 6.97-3.04 10.61-6.4-4.09-13.07-7-19.81-8.96-7.98-2.33-16.03-3.33-23.85-3.4 1.55-4.66 3.25-9.23 5.12-13.68zm26.17-42.41c5.54-6.17 11.57-11.6 18.07-16.14 5.6 2.71 11.96 6.66 17.28 11.27 3.57 3.08 6.61 6.4 8.49 9.69-3.84 4.3-7.42 9.04-10.75 14.2-3.9-4.19-9.17-8.18-14.94-11.48-5.72-3.27-12.07-5.95-18.15-7.54zm30-23.17c7.44-3.61 15.39-6.12 23.84-7.32 4.06 5.81 8.1 11.79 10.69 17.69a93.424 93.424 0 00-12.11 9.07c-2.49-3.59-5.72-7-9.31-10.1-4.05-3.51-8.62-6.69-13.11-9.34zm37.68-8.1c7.6.21 15.54 1.43 23.8 3.79 2.06.6 4.14 1.26 6.24 1.99-8.01 1.44-15.6 3.79-22.73 7.05-2.01-4.42-4.57-8.68-7.31-12.83z"/></svg>