<svg xmlns="http://www.w3.org/2000/svg" shape-rendering="geometricPrecision" text-rendering="geometricPrecision" image-rendering="optimizeQuality" fill-rule="evenodd" clip-rule="evenodd" viewBox="0 0 502 512.24"><path fill="#D1A27F" d="M192.01 15.1c-16.26-1.65-32.17 2.47-47.73 12.57l6.79 23.85c.33 1.04.43 2.17.26 3.32-.6 4.04-4.36 6.81-8.4 6.21-23.08-3.49-43.01-.11-58.99 7.73-12.03 5.91-21.89 14.38-29.19 24.36-7.24 9.91-11.95 21.33-13.74 33.21-2.1 13.86-.22 28.31 6.2 41.68a7.38 7.38 0 01-.43 8.19c-3.06 4.1-5.87 8.2-8.41 12.29-20.93 33.63-26.95 69.45-22.02 101.09 4.88 31.35 20.5 58.56 42.94 75.34 2.12 1.58 4.26 3.05 6.4 4.38 1.24.75 2.28 1.87 2.92 3.29 12.2 27.01 27.81 47.86 46.81 62.03 18.39 13.73 40.09 21.25 65.07 22.1 1.9.01 3.79.75 5.22 2.2 10.18 10.37 20.26 19.21 31.17 25.86 10.28 6.27 21.41 10.63 34.23 12.55 13.42-3.49 25.36-8.68 36.08-15.01 11.16-6.6 21.01-14.43 29.84-22.88a7.393 7.393 0 015.08-2.05c23.37-.13 46.26-8.15 65.91-22.93 19.16-14.41 35.25-35.27 45.76-61.55a7.393 7.393 0 012.91-3.49l1.5-.97.01.01.01-.01c28.79-18.77 44.62-49.68 48.24-83.97 3.68-34.84-5.16-73.08-25.72-105.83l-1.39-2.17a7.435 7.435 0 01-1.25-6.06c4.83-20.43 4.54-37.92.67-52.56-4.17-15.76-12.52-28.29-23.07-37.64-10.63-9.41-23.54-15.66-36.74-18.78-12.95-3.05-26.08-3.09-37.5-.14-1.11.35-2.31.45-3.52.24-4.02-.7-6.71-4.53-6.01-8.54l4.56-25.74c-21.05-11.04-38.85-14.07-54.33-11.42-16.46 2.81-30.71 12.14-43.71 25.12a7.374 7.374 0 01-9.95.65c-19.55-15.76-38.39-24.7-56.48-26.53z"/><path fill="#0E1117" fill-rule="nonzero" d="M131.91 18.29C151.7 4.13 172.23-1.72 193.45.43c19.4 1.97 39.13 10.63 59.17 25.73 13.85-12.72 29.21-21.8 47.05-24.85 19.82-3.39 42.32.72 68.64 15.65a7.372 7.372 0 013.63 7.67h.01l-3.62 20.43c10.9-1.34 22.54-.67 33.97 2.03 15.43 3.64 30.58 11 43.14 22.12 12.63 11.19 22.61 26.15 27.57 44.91 4.27 16.13 4.82 35.01.14 56.63l.05.07c22.33 35.57 31.92 77.2 27.91 115.19-4.06 38.41-21.95 73.19-54.54 94.59-11.55 27.82-28.99 50.07-49.72 65.66-21.34 16.05-46.18 25.03-71.72 25.81-9.08 8.46-19.15 16.29-30.44 22.97-12.25 7.24-25.93 13.12-41.36 16.97-1.08.27-2.16.29-3.19.09-15.43-2.13-28.71-7.27-40.94-14.72-11.33-6.9-21.67-15.76-31.95-26.04-26.98-1.41-50.54-9.86-70.66-24.87-20.55-15.32-37.38-37.43-50.51-65.78-1.94-1.26-3.81-2.57-5.62-3.92-25.48-19.04-43.18-49.72-48.66-84.92-5.44-34.92 1.13-74.31 24.05-111.14 2.06-3.3 4.23-6.57 6.52-9.79-6.5-15.17-8.3-31.3-5.97-46.77 2.15-14.19 7.78-27.85 16.46-39.73 8.64-11.8 20.32-21.84 34.62-28.86 15.87-7.78 34.9-11.81 56.45-10.35l-5.3-18.59c-.93-3.27.5-6.65 3.28-8.33zm60.1-3.19c-16.26-1.65-32.17 2.47-47.73 12.57l6.79 23.85c.33 1.04.43 2.17.26 3.32-.6 4.04-4.36 6.81-8.4 6.21-23.08-3.49-43.01-.11-58.99 7.73-12.03 5.91-21.89 14.38-29.19 24.36-7.24 9.91-11.95 21.33-13.74 33.21-2.1 13.86-.22 28.31 6.2 41.68a7.38 7.38 0 01-.43 8.19c-3.06 4.1-5.87 8.2-8.41 12.29-20.93 33.63-26.95 69.45-22.02 101.09 4.88 31.35 20.5 58.56 42.94 75.34 2.12 1.58 4.26 3.05 6.4 4.38 1.24.75 2.28 1.87 2.92 3.29 12.2 27.01 27.81 47.86 46.81 62.03 18.39 13.73 40.09 21.25 65.07 22.1 1.9.01 3.79.75 5.22 2.2 10.18 10.37 20.26 19.21 31.17 25.86 10.28 6.27 21.41 10.63 34.23 12.55 13.42-3.49 25.36-8.68 36.08-15.01 11.16-6.6 21.01-14.43 29.84-22.88a7.393 7.393 0 015.08-2.05c23.37-.13 46.26-8.15 65.91-22.93 19.16-14.41 35.25-35.27 45.76-61.55a7.393 7.393 0 012.91-3.49l1.5-.97.01.01.01-.01c28.79-18.77 44.62-49.68 48.24-83.97 3.68-34.84-5.16-73.08-25.72-105.83l-1.39-2.17a7.435 7.435 0 01-1.25-6.06c4.83-20.43 4.54-37.92.67-52.56-4.17-15.76-12.52-28.29-23.07-37.64-10.63-9.41-23.54-15.66-36.74-18.78-12.95-3.05-26.08-3.09-37.5-.14-1.11.35-2.31.45-3.52.24-4.02-.7-6.71-4.53-6.01-8.54l4.56-25.74c-21.05-11.04-38.85-14.07-54.33-11.42-16.46 2.81-30.71 12.14-43.71 25.12a7.374 7.374 0 01-9.95.65c-19.55-15.76-38.39-24.7-56.48-26.53z"/><path fill="#BF837B" d="M250.96 497.33l.15.02c13.42-3.49 25.36-8.68 36.08-15.01 11.16-6.6 21.01-14.43 29.84-22.88v.01a7.339 7.339 0 015.08-2.06c23.37-.13 46.26-8.15 65.91-22.93 19.16-14.41 35.25-35.26 45.76-61.55a7.393 7.393 0 012.91-3.49c.57-.36 1.08-.68 1.52-.97 28.8-18.77 44.62-49.68 48.24-83.97 3.68-34.84-5.16-73.08-25.72-105.83-.48-.76-.94-1.49-1.38-2.17a7.359 7.359 0 01-1.26-6.06c4.83-20.43 4.54-37.92.67-52.56-4.17-15.76-12.52-28.29-23.07-37.64-8.94-7.92-19.49-13.59-30.47-17.05-53.75 141.59-104.17 254.09-154.26 363.63v70.51z"/><path fill="#EFBB82" d="M112.11 177.84c5.64-11.76 12.48-22.46 20.47-32.13 7.83-9.49 16.73-17.95 26.65-25.45-3.85-4.95-7.83-9.28-11.97-12.87-5.37-4.68-10.93-8.04-16.7-9.83-8.97-2.79-17.55-2.07-25 1.03-7.16 2.98-13.33 8.17-17.85 14.58-4.52 6.43-7.35 14.06-7.82 21.88-.5 8.34 1.69 16.95 7.38 24.64 3.18 4.29 7.38 8.21 12.53 11.65 3.66 2.43 7.77 4.62 12.31 6.5z"/><path fill="#0E1117" fill-rule="nonzero" d="M112.11 177.84c5.64-11.76 12.48-22.46 20.47-32.13 7.83-9.49 16.73-17.95 26.65-25.45-3.85-4.95-7.83-9.28-11.97-12.87-5.37-4.68-10.93-8.04-16.7-9.83-8.97-2.79-17.55-2.07-25 1.03-7.16 2.98-13.33 8.17-17.85 14.58-4.52 6.43-7.35 14.06-7.82 21.88-.5 8.34 1.69 16.95 7.38 24.64 3.18 4.29 7.38 8.21 12.53 11.65 3.66 2.43 7.77 4.62 12.31 6.5zm31.84-22.78c-8.5 10.3-15.59 21.93-21.18 34.96h-.01c-1.48 3.48-5.42 5.31-9.08 4.1-8.4-2.79-15.77-6.33-22.02-10.49-6.59-4.39-12.02-9.49-16.22-15.16-7.92-10.7-10.96-22.69-10.27-34.28.64-10.63 4.43-20.9 10.48-29.51 6.07-8.62 14.45-15.63 24.25-19.71 10.46-4.36 22.49-5.38 34.99-1.5 7.89 2.45 15.22 6.81 22.07 12.77 6.48 5.64 12.62 12.8 18.46 21.2l.23.31c2.29 3.36 1.43 7.95-1.93 10.24-11.33 7.78-21.28 16.78-29.77 27.07z"/><path fill="#CB9695" d="M126.87 152.5c1.74-2.47 3.56-4.85 5.43-7.16 1.77-2.19 3.57-4.28 5.39-6.29-.82-.79-1.65-1.6-2.48-2.47-3.46-3.63-8.26-8.31-13-10.53-3.11-1.45-6.36-1.63-9.08 1.36l-.01.01.01.02c-.61.67-1.12 1.34-1.53 2-1.54 2.48-1.62 5-.83 7.31 1.01 3 3.31 5.91 5.99 8.33 1.46 1.33 3.01 2.49 4.54 3.44 2.03 1.26 3.81 2.62 5.57 3.98z"/><path fill="#0E1117" fill-rule="nonzero" d="M126.87 152.5c1.74-2.47 3.56-4.85 5.43-7.16 1.77-2.19 3.57-4.28 5.39-6.29-.82-.79-1.65-1.6-2.48-2.47-3.46-3.63-8.26-8.31-13-10.53-3.11-1.45-6.36-1.63-9.08 1.36l-.01.01.01.02c-.61.67-1.12 1.34-1.53 2-1.54 2.48-1.62 5-.83 7.31 1.01 3 3.31 5.91 5.99 8.33 1.46 1.33 3.01 2.49 4.54 3.44 2.03 1.26 3.81 2.62 5.57 3.98zm16.85 2.14c-2.98 3.69-5.88 7.7-8.54 12.1-2.08 3.44-6.53 4.59-10.01 2.57-2.61-1.51-4.73-3.16-6.87-4.82-1.54-1.18-3.08-2.38-4.79-3.44-2.25-1.4-4.54-3.11-6.68-5.06-4.33-3.92-8.14-8.9-10.03-14.5-2.13-6.29-1.92-13.1 2.27-19.84.88-1.4 1.92-2.78 3.15-4.14l.02.01c8.28-9.11 17.57-8.85 26.2-4.8 7 3.28 13.14 9.18 17.45 13.7.94.98 2 1.99 3.05 3 1.35 1.28 2.7 2.56 4.19 4.18a7.376 7.376 0 01.12 10.4c-3.22 3.3-6.45 6.84-9.53 10.64z"/><path fill="#EFBB82" d="M369.26 145.71c7.99 9.67 14.82 20.37 20.47 32.13 4.53-1.88 8.65-4.07 12.31-6.5 5.15-3.44 9.35-7.36 12.53-11.65 5.69-7.69 7.88-16.3 7.38-24.63-.47-7.83-3.3-15.46-7.83-21.89-4.51-6.41-10.68-11.6-17.84-14.58-7.45-3.1-16.04-3.82-25-1.03-5.77 1.79-11.33 5.15-16.71 9.83-4.13 3.59-8.11 7.92-11.96 12.87 9.92 7.5 18.82 15.96 26.65 25.45z"/><path fill="#0E1117" fill-rule="nonzero" d="M379.07 190.02c-5.59-13.03-12.68-24.66-21.18-34.96-8.49-10.28-18.44-19.28-29.77-27.07a7.363 7.363 0 01-1.93-10.24l.22-.31c5.85-8.4 11.98-15.56 18.47-21.2 6.85-5.96 14.18-10.32 22.07-12.77 12.5-3.88 24.52-2.86 34.99 1.5 9.8 4.08 18.18 11.09 24.25 19.71 6.05 8.61 9.84 18.88 10.48 29.51.69 11.59-2.35 23.58-10.27 34.28-4.2 5.67-9.63 10.77-16.23 15.16-6.25 4.16-13.61 7.7-22.01 10.49-3.66 1.21-7.6-.62-9.08-4.1h-.01zm-9.81-44.31c7.99 9.67 14.82 20.37 20.47 32.13 4.53-1.88 8.65-4.07 12.31-6.5 5.15-3.44 9.35-7.36 12.53-11.65 5.69-7.69 7.88-16.3 7.38-24.63-.47-7.83-3.3-15.46-7.83-21.89-4.51-6.41-10.68-11.6-17.84-14.58-7.45-3.1-16.04-3.82-25-1.03-5.77 1.79-11.33 5.15-16.71 9.83-4.13 3.59-8.11 7.92-11.96 12.87 9.92 7.5 18.82 15.96 26.65 25.45z"/><path fill="#CB9695" d="M369.54 145.34c1.87 2.31 3.69 4.69 5.43 7.16 1.75-1.36 3.54-2.72 5.57-3.98 1.52-.95 3.08-2.11 4.54-3.44 2.68-2.43 4.98-5.33 5.99-8.33.78-2.31.71-4.83-.83-7.31-.41-.65-.92-1.33-1.54-2l.02-.02-.02-.01c-2.71-2.99-5.97-2.81-9.07-1.36-4.73 2.22-9.54 6.9-13 10.53-.83.87-1.66 1.68-2.48 2.47 1.82 2.01 3.62 4.1 5.39 6.29z"/><path fill="#0E1117" fill-rule="nonzero" d="M366.66 166.74c-2.66-4.4-5.56-8.41-8.55-12.1-3.07-3.8-6.3-7.34-9.52-10.64a7.376 7.376 0 01.12-10.4c1.49-1.62 2.84-2.9 4.19-4.18 1.05-1.01 2.11-2.02 3.05-3 4.31-4.52 10.45-10.42 17.45-13.7 8.63-4.05 17.92-4.31 26.2 4.8l.01-.01c1.24 1.36 2.28 2.74 3.15 4.14 4.2 6.74 4.41 13.55 2.28 19.84-1.89 5.59-5.7 10.58-10.03 14.5a46.441 46.441 0 01-6.68 5.06c-1.71 1.06-3.25 2.26-4.79 3.44-2.14 1.66-4.26 3.31-6.87 4.82-3.48 2.02-7.93.87-10.01-2.57zm2.88-21.4c1.87 2.31 3.69 4.69 5.43 7.16 1.75-1.36 3.54-2.72 5.57-3.98 1.52-.95 3.08-2.11 4.54-3.44 2.68-2.43 4.98-5.33 5.99-8.33.78-2.31.71-4.83-.83-7.31-.41-.65-.92-1.33-1.54-2l.02-.02-.02-.01c-2.71-2.99-5.97-2.81-9.07-1.36-4.73 2.22-9.54 6.9-13 10.53-.83.87-1.66 1.68-2.48 2.47 1.82 2.01 3.62 4.1 5.39 6.29z"/><path fill="#F0C188" d="M302.61 387.73c1.73-2.81 3.32-5.8 4.74-8.96 1.41-3.11 2.64-6.36 3.7-9.75.72-2.3 2.46-4 4.57-4.75 36.16-15.04 57.48-39.91 67.66-68.13 12.46-34.5 8.55-74.17-5.13-107.33-7.61-18.47-19.59-35.77-33.86-48.42-9.71-8.6-20.45-15.01-31.5-18.06-10.64-2.94-21.64-2.73-32.36 1.68-8.17 3.37-16.28 9.21-24.05 17.99-2.69 3.04-7.35 3.32-10.39.63-.24-.21-.47-.44-.68-.68-7.88-8.88-16.06-14.8-24.29-18.22-10.7-4.45-21.61-4.7-32.12-1.83-10.91 2.99-21.5 9.31-31.12 17.84-14.27 12.64-26.27 30.03-33.98 48.57l-.17.37c-12.53 30.33-16.9 66.11-8.04 98.42 8.74 31.9 30.57 60.53 70.51 77.15l.37.17c2.09.87 3.57 2.6 4.2 4.6h.01c.99 3.17 2.07 6.21 3.28 9.06 1.18 2.76 2.5 5.4 4.05 7.87 5.74 9.18 13.1 16.3 21.33 21.35 9.92 6.1 21.08 9.18 32.13 9.22 11.05.04 22.06-2.94 31.68-8.97 7.54-4.72 14.25-11.32 19.46-19.82z"/><path fill="#0E1117" fill-rule="nonzero" d="M302.61 387.73c1.73-2.81 3.32-5.8 4.74-8.96 1.41-3.11 2.64-6.36 3.7-9.75.72-2.3 2.46-4 4.57-4.75 36.16-15.04 57.48-39.91 67.66-68.13 12.46-34.5 8.55-74.17-5.13-107.33-7.61-18.47-19.59-35.77-33.86-48.42-9.71-8.6-20.45-15.01-31.5-18.06-10.64-2.94-21.64-2.73-32.36 1.68-8.17 3.37-16.28 9.21-24.05 17.99-2.69 3.04-7.35 3.32-10.39.63-.24-.21-.47-.44-.68-.68-7.88-8.88-16.06-14.8-24.29-18.22-10.7-4.45-21.61-4.7-32.12-1.83-10.91 2.99-21.5 9.31-31.12 17.84-14.27 12.64-26.27 30.03-33.98 48.57l-.17.37c-12.53 30.33-16.9 66.11-8.04 98.42 8.74 31.9 30.57 60.53 70.51 77.15l.37.17c2.09.87 3.57 2.6 4.2 4.6h.01c.99 3.17 2.07 6.21 3.28 9.06 1.18 2.76 2.5 5.4 4.05 7.87 5.74 9.18 13.1 16.3 21.33 21.35 9.92 6.1 21.08 9.18 32.13 9.22 11.05.04 22.06-2.94 31.68-8.97 7.54-4.72 14.25-11.32 19.46-19.82zm18.19-2.9a94.232 94.232 0 01-5.6 10.58c-6.48 10.55-14.84 18.78-24.26 24.67-11.98 7.49-25.69 11.21-39.47 11.16a76.742 76.742 0 01-39.87-11.35c-10.07-6.19-19.09-14.91-26.12-26.15-1.94-3.1-3.61-6.41-5.09-9.89-.99-2.34-1.9-4.73-2.72-7.16-42.93-18.77-66.62-50.44-76.28-85.72-9.77-35.62-5.05-74.82 8.62-107.9l.16-.41c8.53-20.5 21.89-39.8 37.85-53.95 11.24-9.95 23.82-17.4 37.01-21.01 13.6-3.71 27.74-3.38 41.64 2.41 8.26 3.43 16.39 8.79 24.2 16.37 7.71-7.44 15.76-12.7 23.96-16.09 13.96-5.75 28.2-6.04 41.89-2.26 13.28 3.67 25.99 11.19 37.33 21.24 15.94 14.13 29.28 33.36 37.73 53.84 14.93 36.22 19.13 79.76 5.36 117.9-11.25 31.16-34.34 58.63-73.08 75.57-.99 2.81-2.07 5.53-3.26 8.15zM69 374.1a7.382 7.382 0 01-5.51 8.86c-3.97.92-7.94-1.54-8.86-5.51-3.21-13.73-4.4-27.48-3.58-41.23.82-13.74 3.63-27.44 8.44-41.11a7.383 7.383 0 019.41-4.5c3.84 1.36 5.86 5.57 4.5 9.41-4.35 12.37-6.9 24.73-7.63 37.06-.73 12.31.34 24.65 3.23 37.02zm378.75 3.35a7.382 7.382 0 01-8.86 5.51c-3.97-.93-6.44-4.89-5.51-8.86 2.88-12.37 3.96-24.71 3.23-37.02-.74-12.33-3.28-24.69-7.64-37.06a7.383 7.383 0 014.5-9.41c3.85-1.35 8.06.66 9.41 4.5 4.81 13.67 7.63 27.37 8.45 41.11.81 13.75-.38 27.5-3.58 41.23zm-120.24 92.46c-2.83 2.93-7.49 3.02-10.42.2a7.365 7.365 0 01-.2-10.42c7.51-7.85 13.91-16.65 18.88-26.31 4.77-9.25 8.24-19.28 10.17-30.03.71-4 4.54-6.66 8.54-5.94 4 .72 6.66 4.54 5.94 8.54-2.2 12.29-6.14 23.7-11.54 34.18-5.64 10.94-12.87 20.9-21.37 29.78zm-141.79-10.79a7.365 7.365 0 11-10.62 10.21c-8.5-8.88-15.73-18.83-21.37-29.78-5.4-10.48-9.34-21.89-11.55-34.18-.71-4 1.95-7.82 5.95-8.54 4-.72 7.82 1.95 8.54 5.95 1.93 10.75 5.4 20.77 10.16 30.02 4.98 9.67 11.38 18.46 18.89 26.32z"/><path fill="#E6987C" d="M311.3 368.34c.83-1.96 2.43-3.4 4.33-4.08 36.16-15.04 57.47-39.9 67.65-68.12 12.46-34.5 8.55-74.17-5.13-107.33-7.46-18.12-19.12-35.09-33.03-47.67 45.25 75.42 15.87 151.54-69.2 228.21l35.38-1.01z"/><path fill="#E6DBE0" d="M302.61 387.71c1.77-2.88 3.35-5.85 4.74-8.94 1.4-3.1 2.64-6.35 3.7-9.75a7.37 7.37 0 014.58-4.76c15.26-6.35 27.88-14.45 38.13-23.81 10.19-72.97-207.8-75.01-207.28-1.41C157 349 170.1 357.59 186.1 364.25l.37.15c2.1.88 3.58 2.61 4.21 4.62.99 3.17 2.07 6.22 3.28 9.06 1.18 2.76 2.5 5.4 4.05 7.87 5.76 9.2 13.1 16.32 21.3 21.35 9.93 6.1 21.09 9.18 32.16 9.22 11.05.04 22.05-2.94 31.68-8.97 7.54-4.72 14.24-11.32 19.46-19.82l.02-.02h-.02z"/><path fill="#AF7B72" d="M229.93 306.14c7.41 4.2 15.3 8.67 20.94 15.75 5.63-7.08 13.52-11.55 20.93-15.75l2.54-1.43c5.07-2.92 9.35-6.44 11.36-9.64.52-.84.82-1.5.79-1.89 0-.12-.05.15-.21.03-1.47-1.07-4.38-1.88-9.13-2.3-3.68-.32-7.45.28-11.23 1.4-4.07 1.2-8.22 3.03-12.32 5.02l-.03.01c-1.65.8-3.63.86-5.4 0-4.11-1.99-8.27-3.83-12.35-5.03-3.79-1.12-7.56-1.72-11.23-1.4-4.75.42-7.67 1.23-9.14 2.3-.14.11-.19-.15-.21-.07v.04c-.02.39.27 1.05.8 1.89 2 3.2 6.28 6.72 11.35 9.64l2.54 1.43z"/><path fill="#0E1117" fill-rule="nonzero" d="M157.78 215.1a7.386 7.386 0 01-10.11-2.6 7.38 7.38 0 012.6-10.1c10.17-6.03 20.86-8.91 30.77-8.85 9.16.05 17.65 2.6 24.55 7.47 7.02 4.96 12.35 12.25 15.01 21.68 2.52 8.98 2.58 19.9-.72 32.56l-1.16 4.4c-1.89 7-3.77 13.96-3.89 20.39 2.44-.71 5.33-1.24 8.69-1.53 5.32-.47 10.6.34 15.8 1.88 3.94 1.16 7.79 2.74 11.55 4.48 3.75-1.74 7.6-3.32 11.55-4.48 5.19-1.54 10.47-2.35 15.8-1.88 3.57.31 6.6.88 9.14 1.67-.11-6.48-2-13.48-3.9-20.53l-1.16-4.4c-3.31-12.66-3.25-23.58-.72-32.56 2.66-9.43 7.98-16.72 15.01-21.68 6.9-4.87 15.39-7.42 24.54-7.47 9.91-.06 20.6 2.82 30.77 8.85 3.51 2.07 4.67 6.59 2.6 10.1s-6.59 4.67-10.1 2.6a53.181 53.181 0 00-6.19-3.16c.56 1.92.86 3.94.86 6.04 0 11.9-9.65 21.55-21.55 21.55-9.89 0-18.22-6.66-20.76-15.73-.37.92-.7 1.88-.98 2.89-1.86 6.6-1.82 14.91.78 24.88l1.16 4.28c5.01 18.58 9.97 36.96-7.63 52.89-4.42 4-9.24 6.78-14.02 9.54-8.9 5.14-17.66 10.21-17.62 23.25 2.42 11.68 11.46 19.08 22.76 22.16 6.39 1.74 13.45 2.14 20.48 1.19 7.11-.95 14.18-3.26 20.53-6.93 14-8.09 24.45-23.02 23.59-44.86a7.36 7.36 0 017.07-7.65 7.372 7.372 0 017.65 7.07c1.11 28.2-12.58 47.59-30.93 58.2-8.04 4.65-16.98 7.57-25.94 8.78-9.03 1.21-18.1.69-26.32-1.54-10.7-2.92-20.04-8.67-26.26-17.26-6.23 8.59-15.57 14.34-26.27 17.26-8.22 2.23-17.28 2.75-26.31 1.54-8.97-1.21-17.91-4.13-25.95-8.78-18.35-10.61-32.04-30-30.92-58.2a7.366 7.366 0 0114.72.58c-.87 21.84 9.58 36.77 23.59 44.86 6.34 3.67 13.41 5.98 20.52 6.93 7.04.95 14.1.55 20.48-1.19 11.33-3.09 20.4-10.53 22.79-22.27-.01-12.96-8.75-18.01-17.63-23.14-1.1-.64-2.21-1.28-3.32-1.94l-1.56-.89c-6.7-3.85-12.58-8.87-15.68-13.82-.51-.82-.96-1.64-1.33-2.47-7.78-13.53-3.79-28.35.25-43.31l1.16-4.28c2.6-9.97 2.63-18.28.77-24.88-.1-.37-.21-.74-.33-1.1-3.07 8.15-10.94 13.94-20.16 13.94-11.91 0-21.56-9.65-21.56-21.55 0-2.31.37-4.53 1.04-6.62-2.54 1-5.08 2.24-7.6 3.74zm59.7 77.11c1.09 1.99 2.55 3.87 4.48 5.62 3.15 2.85 7.36 5.28 11.53 7.69 6.47 3.74 12.89 7.45 17.6 13.06 4.71-5.61 11.12-9.32 17.6-13.06 4.17-2.41 8.37-4.84 11.53-7.69 1.88-1.71 3.32-3.54 4.4-5.48-1.66-.65-4.1-1.14-7.47-1.44-3.68-.32-7.45.28-11.23 1.4-4.07 1.2-8.22 3.03-12.32 5.02l-.03.01c-1.65.8-3.63.86-5.4 0-4.11-1.99-8.27-3.83-12.35-5.03-3.79-1.12-7.56-1.72-11.23-1.4-3.13.28-5.47.72-7.11 1.3z"/><circle fill="#fff" cx="185.9" cy="217.98" r="8.67"/><circle fill="#fff" cx="317.52" cy="217.98" r="8.67"/></svg>