<svg xmlns="http://www.w3.org/2000/svg" shape-rendering="geometricPrecision" text-rendering="geometricPrecision" image-rendering="optimizeQuality" fill-rule="evenodd" clip-rule="evenodd" viewBox="0 0 512 390.1"><path fill-rule="nonzero" d="M320.03 13.05c-2.81 5.34-5.51 11.78-7.33 18.4-1 3.62-1.73 7.26-2.05 10.76 12.38 3.43 24.04 8.1 34.88 13.87a167.259 167.259 0 0135.08 24.87c13.94 12.88 25.09 27.15 33.62 42.31 7.39-2.46 15.29-3.8 23.5-3.8 41.02 0 74.27 33.26 74.27 74.27 0 41.02-33.25 74.27-74.27 74.27-3.97 0-7.87-.31-11.67-.91-.91 2.68-1.87 5.34-2.9 7.97-8.39 21.5-20.73 41.52-36.53 58.63-31.32 33.93-76.15 56.41-130.59 56.41-23.07 0-45.16-4.36-65.47-12.31-21.02-8.22-40.15-20.34-56.5-35.45-22.94-21.21-39.12-47.24-48.36-75.21-3.73.57-7.55.87-11.44.87C33.25 268 0 234.75 0 193.73c0-41.01 33.25-74.27 74.27-74.27 8.55 0 16.75 1.45 24.39 4.11 5.3-9.65 11.56-18.91 18.8-27.66 11.03-13.35 24-25.1 38.48-34.83a179.002 179.002 0 0145.1-21.87c16.48-14.64 34.89-26.09 54.7-32.74 18.77-6.31 38.72-8.31 59.37-4.64 4 .7 6.68 4.51 5.98 8.51-.17 1-.54 1.91-1.06 2.71zm-21.47 14.49c1.18-4.28 2.68-8.51 4.35-12.49-14.73-1.22-28.98.77-42.52 5.32-18.24 6.13-35.33 16.94-50.71 30.82-.76.69-1.68 1.23-2.73 1.55a164.425 164.425 0 00-42.85 20.53c-13.24 8.89-25.14 19.69-35.32 32-27.72 33.53-39.9 75.33-37.15 116.14 2.74 40.81 20.41 80.62 52.38 110.18a165.212 165.212 0 0051.91 32.53c18.6 7.27 38.88 11.27 60.12 11.27 50 0 91.11-20.58 119.79-51.65 14.54-15.75 25.91-34.2 33.65-54.02 7.72-19.8 11.82-41 11.82-62.28 0-41.6-15.73-83.46-50.64-115.69-9.53-8.8-20.27-16.44-32.02-22.69-11.48-6.1-23.87-10.85-37.01-14.05-3.2-.68-5.67-3.47-5.8-6.89-.27-6.62.84-13.71 2.73-20.58z"/><path fill="#E7BB9F" d="M73.47 136.21c6.16 0 12.1.97 17.67 2.76-11.4 26.52-16.07 55.19-14.17 83.41.64 9.54 2.04 19.03 4.18 28.37-2.52.34-5.08.51-7.68.51-31.77 0-57.53-25.75-57.53-57.53 0-31.77 25.76-57.52 57.53-57.52zm365.06 0c31.77 0 57.53 25.75 57.53 57.52 0 31.78-25.76 57.53-57.53 57.53-2.62 0-5.2-.17-7.73-.51 3.43-14.18 5.21-28.73 5.21-43.31 0-23.34-4.54-46.75-14.12-68.79a57.539 57.539 0 0116.64-2.44z"/><path fill="#C38766" d="M298.56 27.54c1.18-4.28 2.68-8.51 4.35-12.49-14.73-1.22-28.98.77-42.52 5.32-18.24 6.13-35.33 16.94-50.71 30.82-.76.69-1.68 1.23-2.73 1.55a164.425 164.425 0 00-42.85 20.53c-13.24 8.89-25.14 19.69-35.32 32-27.72 33.53-39.9 75.33-37.15 116.14 2.74 40.81 20.41 80.62 52.38 110.18a165.212 165.212 0 0051.91 32.53c18.6 7.27 38.88 11.27 60.12 11.27 50 0 91.11-20.58 119.79-51.65 14.54-15.75 25.91-34.2 33.65-54.02 7.72-19.8 11.82-41 11.82-62.28 0-41.6-15.73-83.46-50.64-115.69-9.53-8.8-20.27-16.44-32.02-22.69-11.48-6.1-23.87-10.85-37.01-14.05-3.2-.68-5.67-3.47-5.8-6.89-.27-6.62.84-13.71 2.73-20.58z"/><path fill="#9E6850" d="M96.89 167.12a166.581 166.581 0 00-5.26 54.29c2.74 40.81 20.41 80.62 52.38 110.18a165.212 165.212 0 0051.91 32.53c18.6 7.27 38.88 11.27 60.12 11.27 50 0 91.11-20.58 119.79-51.65 14.54-15.75 25.91-34.19 33.65-54.02 7.72-19.8 11.82-41 11.82-62.28 0-14.16-1.83-28.36-5.61-42.19-28.96 78.75-89.61 132.97-159.75 132.97-69.58 0-129.82-53.36-159.05-131.1z"/><path fill="#F7DBCA" d="M146.53 181.67c-5.58 20.43.52 44.49 26.06 65.09a7.336 7.336 0 012.56 8.46c-15.99 43.36-7.23 74.05 12.89 92.81 17.74 16.55 44.28 24.31 70.73 23.64 26.45-.67 52.58-9.77 69.49-26.93 18.9-19.19 26.18-49.02 8.98-89.17-1.28-3-.43-6.6 2.27-8.68 26.18-20.25 32.97-43.94 27.97-64.15-2.13-8.62-6.37-16.67-12.14-23.59-5.79-6.96-13.17-12.8-21.52-16.97-20.93-10.44-47.98-10.07-71.79 9.88-2.74 2.52-7 2.6-9.84.07-23-20.43-49.57-21.33-70.51-11.33a68.21 68.21 0 00-22.2 16.94c-6.03 7-10.56 15.16-12.95 23.93z"/><path fill-rule="nonzero" d="M159.64 255.05c-27.68-24.21-33.97-52.62-27.25-77.23 2.99-10.94 8.57-21.07 16-29.68 7.4-8.58 16.64-15.69 26.97-20.61 24.39-11.65 54.87-11.4 81.84 9.66 27.82-20.64 58.81-20.32 83.17-8.17a81.958 81.958 0 0126.24 20.77c7.17 8.61 12.45 18.65 15.12 29.45 6 24.24-.96 52.03-28.89 75.72 17.19 44.11 7.9 77.71-14.12 100.07-19.68 19.96-49.58 30.54-79.61 31.3-30.02.76-60.42-8.29-81.07-27.55-23.44-21.86-34.37-56.32-18.4-103.73zm-13.11-73.38c-5.58 20.43.52 44.49 26.06 65.09a7.336 7.336 0 012.56 8.46c-15.99 43.36-7.23 74.05 12.89 92.81 17.74 16.55 44.28 24.31 70.73 23.64 26.45-.67 52.58-9.77 69.49-26.93 18.9-19.19 26.18-49.02 8.98-89.17-1.28-3-.43-6.6 2.27-8.68 26.18-20.25 32.97-43.94 27.97-64.15-2.13-8.62-6.37-16.67-12.14-23.59-5.79-6.96-13.17-12.8-21.52-16.97-20.93-10.44-47.98-10.07-71.79 9.88-2.74 2.52-7 2.6-9.84.07-23-20.43-49.57-21.33-70.51-11.33a68.21 68.21 0 00-22.2 16.94c-6.03 7-10.56 15.16-12.95 23.93z"/><path fill="#EEC9B1" d="M170.52 296.51c-.09 21.2 7.7 37.42 19.98 48.88 17.03 15.88 42.62 23.32 68.19 22.68 25.56-.65 50.76-9.39 66.99-25.86 9.76-9.91 16.23-22.86 17.43-38.83-59 2.98-116.94 2.16-172.59-6.87z"/><path fill-rule="nonzero" d="M303.09 295.79c2.46-3.22 7.07-3.83 10.29-1.37 3.22 2.45 3.84 7.06 1.38 10.28a73.446 73.446 0 01-25.74 21.16 72.84 72.84 0 01-32.34 7.54 72.82 72.82 0 01-32.11-7.44 73.375 73.375 0 01-25.66-20.84c-2.49-3.21-1.91-7.83 1.29-10.32s7.82-1.91 10.32 1.29c5.47 7.04 12.48 12.79 20.49 16.71 7.7 3.77 16.42 5.89 25.67 5.89 9.31 0 18.08-2.15 25.85-5.99a58.588 58.588 0 0020.56-16.91zm-1.03-119.44c12.76 0 23.11 10.35 23.11 23.11s-10.35 23.1-23.11 23.1-23.11-10.34-23.11-23.1c0-12.76 10.35-23.11 23.11-23.11zm-90.48 0c12.76 0 23.1 10.35 23.1 23.11s-10.34 23.1-23.1 23.1c-12.76 0-23.11-10.34-23.11-23.1 0-12.76 10.35-23.11 23.11-23.11zm19.69 68.37c3.2-4.82 12.11-5.11 25.19.65 9.47-5.29 21.22-6.43 25.58-.64 4.55 6.05.44 12.32-3.54 16.97-5.84 6.83-14.75 15.43-20.87 15.7-6.34.28-15.22-7.69-21.36-14.57-4.22-4.73-9.38-11.53-5-18.11z"/></svg>