<svg xmlns="http://www.w3.org/2000/svg" shape-rendering="geometricPrecision" text-rendering="geometricPrecision" image-rendering="optimizeQuality" fill-rule="evenodd" clip-rule="evenodd" viewBox="0 0 512 502.974"><path fill="#BED3DE" d="M459.442 204.898l-409.663-.531c-3.324 12.575-4.516 24.953-3.092 36.51 1.44 11.682 5.593 22.521 12.977 31.835a6.758 6.758 0 01.005 8.678c-8.059 9.603-13.131 19.606-15.56 29.435-2.7 10.922-2.154 21.683 1.161 31.456 3.323 9.797 9.438 18.647 17.866 25.719 7.891 6.622 17.8 11.696 29.343 14.561a6.753 6.753 0 015.203 6.944c-.685 11.886 1.349 23.668 5.713 34.269 4.626 11.236 11.859 21.135 21.229 28.393 9.287 7.195 20.716 11.811 33.82 12.567 10.853.625 22.891-1.37 35.873-6.691a6.747 6.747 0 018.138 2.156 76.112 76.112 0 0017.604 17.078c10.391 7.233 22.465 11.716 34.856 12.169 12.299.449 25.014-3.072 36.822-11.827 6.619-4.906 12.992-11.492 18.902-19.981l.013.009a6.743 6.743 0 018.815-2.044c13.243 7.376 27.715 9.103 41.272 6.533 9.6-1.821 18.747-5.796 26.686-11.447 7.925-5.641 14.623-12.937 19.341-21.406 6.419-11.524 9.183-25.286 6.379-40.08l.009-.002-.009-.05a6.738 6.738 0 015.444-7.824c14.578-2.64 26.188-8.934 34.586-17.41 6.499-6.559 11.088-14.467 13.646-23.017 2.573-8.602 3.094-17.831 1.438-26.978-2.235-12.344-8.437-24.603-18.907-35.079a6.758 6.758 0 01.313-10.366c8.597-6.772 13.657-15.535 15.142-26.306 1.437-10.425-.342-22.844-5.365-37.273z"/><path fill-rule="nonzero" d="M44.784 190.879l419.394.545a6.74 6.74 0 016.3 4.341l.017-.007c7.033 18.41 9.58 34.473 7.686 48.211-1.648 11.954-6.56 22.04-14.707 30.273 9.751 11.365 15.692 24.257 18.054 37.301 2.042 11.283 1.407 22.646-1.755 33.217a68.552 68.552 0 01-17.03 28.673c-8.966 9.049-20.833 16.041-35.384 19.77 1.598 15.634-1.868 30.184-8.804 42.636-5.717 10.263-13.788 19.07-23.306 25.846-9.506 6.767-20.482 11.531-32.026 13.719-14.687 2.785-30.287 1.405-44.964-5.305-5.786 7.476-12.001 13.55-18.486 18.358-14.456 10.718-30.12 15.025-45.334 14.469-15.119-.552-29.691-5.911-42.099-14.547a89.491 89.491 0 01-17.518-16.075c-13.236 4.795-25.684 6.569-37.118 5.91-16.001-.922-29.967-6.568-41.327-15.368-11.279-8.737-19.952-20.569-25.458-33.944-4.454-10.818-6.843-22.654-6.868-34.677-11.432-3.53-21.396-8.991-29.585-15.863-10.344-8.681-17.871-19.604-21.989-31.746-4.126-12.164-4.817-25.512-1.479-39.016 2.554-10.334 7.459-20.726 14.98-30.699-7.097-10.363-11.192-22.007-12.718-34.385-1.835-14.884.088-30.831 4.985-46.852a6.743 6.743 0 016.539-4.785zm414.658 14.019l-409.663-.531c-3.324 12.575-4.516 24.953-3.092 36.51 1.44 11.682 5.593 22.521 12.977 31.835a6.758 6.758 0 01.005 8.678c-8.059 9.603-13.131 19.606-15.56 29.435-2.7 10.922-2.154 21.683 1.161 31.456 3.323 9.797 9.438 18.647 17.866 25.719 7.891 6.622 17.8 11.696 29.343 14.561a6.753 6.753 0 015.203 6.944c-.685 11.886 1.349 23.668 5.713 34.269 4.626 11.236 11.859 21.135 21.229 28.393 9.287 7.195 20.716 11.811 33.82 12.567 10.853.625 22.891-1.37 35.873-6.691a6.747 6.747 0 018.138 2.156 76.112 76.112 0 0017.604 17.078c10.391 7.233 22.465 11.716 34.856 12.169 12.299.449 25.014-3.072 36.822-11.827 6.619-4.906 12.992-11.492 18.902-19.981l.013.009a6.743 6.743 0 018.815-2.044c13.243 7.376 27.715 9.103 41.272 6.533 9.6-1.821 18.747-5.796 26.686-11.447 7.925-5.641 14.623-12.937 19.341-21.406 6.419-11.524 9.183-25.286 6.379-40.08l.009-.002-.009-.05a6.738 6.738 0 015.444-7.824c14.578-2.64 26.188-8.934 34.586-17.41 6.499-6.559 11.088-14.467 13.646-23.017 2.573-8.602 3.094-17.831 1.438-26.978-2.235-12.344-8.437-24.603-18.907-35.079a6.758 6.758 0 01.313-10.366c8.597-6.772 13.657-15.535 15.142-26.306 1.437-10.425-.342-22.844-5.365-37.273z"/><path fill="#fff" d="M48.694 208.804c-2.483 11.045-3.263 21.879-2.007 32.073 1.44 11.682 5.593 22.521 12.977 31.835a6.758 6.758 0 01.005 8.678c-8.059 9.603-13.131 19.606-15.56 29.435-2.7 10.922-2.154 21.683 1.161 31.456 3.323 9.797 9.438 18.647 17.866 25.719 7.891 6.622 17.8 11.696 29.343 14.561a6.753 6.753 0 015.203 6.944 78.871 78.871 0 00.076 10.213l2.189.613c5.15 41.24 70.138 66.995 112.234 21.11-63.783-38.072-99.759-111.039-87.334-212.16l-76.153-.477z"/><path fill="#E3A997" d="M377.055 161.417l-.84.459c-.875 5.084-.877 9.601-.113 13.567 1.114 5.783 3.93 10.452 8.074 14.037 4.425 3.829 10.414 6.543 17.543 8.166 11.48 2.614 25.709 2.375 41.142-.599 13.27-2.557 26.791-8.26 37.387-15.765 8.882-6.291 15.581-13.715 18.016-21.354-7.895-10.631-21.537-17.345-36.344-21.228-20.114-5.274-41.968-5.305-55.248-2.827-7.681 13.551-16.819 18.548-29.617 25.544z"/><path fill-rule="nonzero" d="M367.345 151.376l3.261-1.8c11.483-6.279 19.458-10.639 25.569-22.683a6.74 6.74 0 014.882-3.613c14.525-3.367 40.649-3.825 64.246 2.363 17.888 4.691 34.572 13.199 44.449 27.137.125.176.24.355.345.537.743 1.152 1.317 2.424 1.627 3.779.37 1.612.388 3.322-.072 5.079-2.966 11.31-11.847 21.756-23.633 30.103-12.162 8.614-27.575 15.14-42.62 18.038-17.209 3.316-33.335 3.523-46.64.493-9.282-2.113-17.263-5.807-23.412-11.126-6.43-5.563-10.795-12.784-12.514-21.703-1.247-6.474-1.06-13.8.803-21.98a6.735 6.735 0 013.709-4.624zm9.71 10.041l-.84.459c-.875 5.084-.877 9.601-.113 13.567 1.114 5.783 3.93 10.452 8.074 14.037 4.425 3.829 10.414 6.543 17.543 8.166 11.48 2.614 25.709 2.375 41.142-.599 13.27-2.557 26.791-8.26 37.387-15.765 8.882-6.291 15.581-13.715 18.016-21.354-7.895-10.631-21.537-17.345-36.344-21.228-20.114-5.274-41.968-5.305-55.248-2.827-7.681 13.551-16.819 18.548-29.617 25.544z"/><path fill="#E3A997" d="M135.785 163.685l-.84-.459c-12.798-6.997-21.936-11.993-29.617-25.545-13.28-2.477-35.134-2.446-55.248 2.828-14.807 3.883-28.449 10.597-36.344 21.228 2.435 7.638 9.134 15.063 18.016 21.354 10.596 7.505 24.117 13.208 37.387 15.765 15.433 2.974 29.662 3.213 41.142.599 7.129-1.624 13.118-4.338 17.543-8.166 4.144-3.585 6.96-8.254 8.074-14.037.764-3.966.762-8.483-.113-13.567z"/><path fill-rule="nonzero" d="M135.785 163.685l-.84-.459c-12.798-6.997-21.936-11.993-29.617-25.545-13.28-2.477-35.134-2.446-55.248 2.828-14.807 3.883-28.449 10.597-36.344 21.228 2.435 7.638 9.134 15.063 18.016 21.354 10.596 7.505 24.117 13.208 37.387 15.765 15.433 2.974 29.662 3.213 41.142.599 7.129-1.624 13.118-4.338 17.543-8.166 4.144-3.585 6.96-8.254 8.074-14.037.764-3.966.762-8.483-.113-13.567zm5.609-12.3l3.261 1.8a6.733 6.733 0 013.709 4.624c1.863 8.18 2.05 15.505.803 21.98-1.719 8.919-6.084 16.14-12.514 21.703-6.149 5.319-14.13 9.013-23.412 11.126-13.305 3.03-29.431 2.823-46.64-.493-15.045-2.899-30.458-9.425-42.62-18.038C12.195 185.74 3.314 175.293.348 163.984a10.539 10.539 0 01-.072-5.079c.31-1.355.884-2.627 1.627-3.779a6.77 6.77 0 01.345-.537c9.877-13.938 26.561-22.446 44.449-27.137 23.597-6.188 49.721-5.73 64.246-2.363a6.737 6.737 0 014.882 3.613c6.111 12.044 14.086 16.404 25.569 22.683z"/><path fill="#D29686" d="M135.785 163.685l-.84-.459c-12.798-6.997-21.936-11.993-29.617-25.545-2.526-.47-5.361-.85-8.434-1.121 4.68 15.329 14.117 35.166 26.566 57.856a30.547 30.547 0 004.364-3.127c4.144-3.585 6.96-8.254 8.074-14.037.764-3.966.762-8.483-.113-13.567z"/><path fill-rule="nonzero" d="M140.009 184.613a6.745 6.745 0 011.401 9.436 6.745 6.745 0 01-9.436 1.401c-11.421-8.462-23.644-14.563-36.526-18.606-12.98-4.073-26.6-6.066-40.721-6.282a6.742 6.742 0 01.159-13.481c15.488.237 30.401 2.414 44.58 6.864 14.277 4.481 27.843 11.258 40.543 20.668z"/><path fill="#F6D8C3" d="M340.791 137.766c-21.86-27.511-51.965-44.528-85.133-44.528-33.168 0-63.273 17.017-85.133 44.528-22.143 27.867-35.838 66.447-35.838 109.131 0 42.827 13.765 81.89 36.006 110.154 21.849 27.765 51.886 45.069 84.965 45.069s63.116-17.304 84.965-45.069c22.241-28.264 36.007-67.327 36.007-110.154 0-42.684-13.696-81.264-35.839-109.131z"/><path fill-rule="nonzero" d="M255.658 79.657c37.243 0 70.884 18.902 95.167 49.461 23.998 30.204 38.843 71.85 38.843 117.779 0 46.003-14.914 88.125-39.011 118.748-24.267 30.837-57.837 50.056-94.999 50.056-37.162 0-70.732-19.219-94.999-50.056-24.097-30.623-39.011-72.745-39.011-118.748 0-45.928 14.845-87.575 38.844-117.779 24.281-30.559 57.923-49.461 95.166-49.461zm85.133 58.109c-21.86-27.511-51.965-44.528-85.133-44.528-33.168 0-63.273 17.017-85.133 44.528-22.143 27.867-35.838 66.447-35.838 109.131 0 42.827 13.765 81.89 36.006 110.154 21.849 27.765 51.886 45.069 84.965 45.069s63.116-17.304 84.965-45.069c22.241-28.264 36.007-67.327 36.007-110.154 0-42.684-13.696-81.264-35.839-109.131z"/><path fill-rule="nonzero" d="M154.62 223.143a6.75 6.75 0 01-8.776-10.256c3.278-2.802 6.533-5.208 9.731-7.193 7.89-4.899 15.688-7.427 22.952-7.268 7.878.172 14.882 3.366 20.499 9.937a36.485 36.485 0 012.762 3.683c3.148 4.054 5.029 9.181 5.029 14.759 0 13.118-10.401 23.752-23.23 23.752-12.83 0-23.23-10.634-23.23-23.752 0-3.312.663-6.466 1.861-9.33-2.512 1.596-5.052 3.491-7.598 5.668z"/><ellipse fill="#fff" cx="187.013" cy="219.553" rx="6.41" ry="6.554"/><path fill="#E9BEA8" d="M340.791 137.766c-21.86-27.511-51.965-44.528-85.133-44.528-30.093 0-57.665 14.008-78.845 37.153l24.715 27.185c-3.01 28.047 19.721 42.503 72.582 36.019 12.654-1.552 23.241-11.572 33.759-21.468 11.843 18.351 25.526 34.861 46.568 44.005 1.1 151.062-54.191 147.61-131.794 158.952-8.151 1.191-14.727 5.281-23.292 6.644l.181 2.522c16.784 11.39 35.885 17.87 56.126 17.87 33.079 0 63.116-17.304 84.965-45.069 22.241-28.264 36.007-67.327 36.007-110.154 0-42.684-13.696-81.264-35.839-109.131z"/><path fill-rule="nonzero" d="M380.462 193.327a6.751 6.751 0 11-7.983-10.89c12.63-9.274 26.119-15.958 40.315-20.381 14.106-4.396 28.931-6.548 44.32-6.783a6.74 6.74 0 11.159 13.48c-14.031.215-27.564 2.182-40.461 6.201-12.807 3.99-24.97 10.017-36.35 18.373z"/><path d="M346.792 217.475a24.128 24.128 0 011.861 9.33c0 13.118-10.4 23.752-23.23 23.752-12.829 0-23.23-10.634-23.23-23.752 0-5.578 1.881-10.705 5.029-14.759a36.485 36.485 0 012.762-3.683c5.617-6.571 12.621-9.765 20.499-9.937 7.264-.159 15.062 2.369 22.953 7.268 3.197 1.985 6.452 4.391 9.73 7.193a6.75 6.75 0 01-8.776 10.256c-2.546-2.177-5.087-4.072-7.598-5.668z"/><ellipse fill="#fff" cx="321.997" cy="219.553" rx="6.41" ry="6.554"/><path fill-rule="nonzero" d="M280.476 306.589a6.752 6.752 0 017.983 10.89l-25.129 18.528v8.398c.407 5.545.372 10.337-.038 14.459.789 7.491 3.167 9.774 6.188 9.3 7.296-1.144 18.13-9.919 26.028-16.336a6.746 6.746 0 018.512 10.467c-9.087 7.383-21.565 17.479-32.478 19.191-6.142.963-11.543-.087-15.458-4.328-2.388 2.367-5.223 3.813-8.369 4.506-4.721 1.04-9.837.164-14.927-1.898-9.303-3.77-19.082-11.904-25.255-18.581a6.733 6.733 0 019.885-9.145c5.112 5.53 13.08 12.211 20.445 15.196 2.691 1.091 5.122 1.614 6.945 1.212 1.238-.272 2.361-1.244 3.254-3.185.783-1.701 1.367-3.917 1.709-6.724-.316-4.037-.322-8.686.025-14.017v-8.207l-25.301-18.191a6.742 6.742 0 117.877-10.943l23.949 17.218 24.155-17.81z"/><path fill="#C0D3DD" d="M289.565 23.87c-9.663-6.525-21.321-10.336-33.879-10.336-12.576 0-24.252 3.823-33.927 10.368-9.981 6.753-17.841 16.39-22.376 27.706a6.747 6.747 0 01-9.595 3.357c-4-2.277-8.324-4.06-12.886-5.264a54.233 54.233 0 00-13.848-1.771c-14.94 0-28.465 6.055-38.254 15.844-9.789 9.788-15.844 23.314-15.844 38.253 0 14.94 6.055 28.465 15.844 38.254 9.789 9.789 23.314 15.844 38.254 15.844 6.607 0 12.922-1.175 18.746-3.326a54.026 54.026 0 0016.411-9.635l.005.005.233-.191a6.743 6.743 0 019.463 1.163 60.874 60.874 0 0021.247 17.173c8.003 3.901 17.004 6.091 26.527 6.091 9.518 0 18.504-2.178 26.487-6.058a60.852 60.852 0 0021.195-17.113l.005.005.153-.189a6.753 6.753 0 019.516-.794 54.115 54.115 0 0016.384 9.575c5.797 2.13 12.081 3.294 18.66 3.294 14.939 0 28.464-6.055 38.253-15.844 9.789-9.789 15.844-23.314 15.844-38.254 0-14.939-6.055-28.465-15.844-38.253-9.789-9.789-23.314-15.844-38.253-15.844-4.813 0-9.425.606-13.768 1.744a53.72 53.72 0 00-12.416 4.969 6.75 6.75 0 01-9.956-3.14c-4.544-11.285-12.405-20.896-22.381-27.633z"/><path fill-rule="nonzero" d="M255.686 0c15.341 0 29.601 4.668 41.439 12.663a74.458 74.458 0 0124.31 27.224 67.591 67.591 0 0126.651-5.491c18.674 0 35.582 7.57 47.821 19.809 12.239 12.24 19.809 29.148 19.809 47.822 0 18.675-7.57 35.583-19.809 47.822-12.239 12.239-29.147 19.809-47.821 19.809a67.473 67.473 0 01-23.313-4.139 67.4 67.4 0 01-15.142-7.871 74.462 74.462 0 01-21.59 15.858 73.821 73.821 0 01-32.355 7.433c-11.627 0-22.638-2.684-32.447-7.466a74.268 74.268 0 01-21.58-15.934 67.426 67.426 0 01-15.207 7.948 67.413 67.413 0 01-23.398 4.171c-18.675 0-35.583-7.57-47.822-19.809-12.239-12.239-19.809-29.147-19.809-47.822 0-18.674 7.57-35.583 19.809-47.822 12.239-12.239 29.147-19.809 47.822-19.809 5.932 0 11.727.782 17.284 2.248a67.008 67.008 0 019.561 3.313A74.464 74.464 0 01214.2 12.695C226.045 4.681 240.323 0 255.686 0zm33.879 23.87c-9.663-6.525-21.321-10.336-33.879-10.336-12.576 0-24.252 3.823-33.927 10.368-9.981 6.753-17.841 16.39-22.376 27.706a6.747 6.747 0 01-9.595 3.357c-4-2.277-8.324-4.06-12.886-5.264a54.233 54.233 0 00-13.848-1.771c-14.94 0-28.465 6.055-38.254 15.844-9.789 9.788-15.844 23.314-15.844 38.253 0 14.94 6.055 28.465 15.844 38.254 9.789 9.789 23.314 15.844 38.254 15.844 6.607 0 12.922-1.175 18.746-3.326a54.026 54.026 0 0016.411-9.635l.005.005.233-.191a6.743 6.743 0 019.463 1.163 60.874 60.874 0 0021.247 17.173c8.003 3.901 17.004 6.091 26.527 6.091 9.518 0 18.504-2.178 26.487-6.058a60.852 60.852 0 0021.195-17.113l.005.005.153-.189a6.753 6.753 0 019.516-.794 54.115 54.115 0 0016.384 9.575c5.797 2.13 12.081 3.294 18.66 3.294 14.939 0 28.464-6.055 38.253-15.844 9.789-9.789 15.844-23.314 15.844-38.254 0-14.939-6.055-28.465-15.844-38.253-9.789-9.789-23.314-15.844-38.253-15.844-4.813 0-9.425.606-13.768 1.744a53.72 53.72 0 00-12.416 4.969 6.75 6.75 0 01-9.956-3.14c-4.544-11.285-12.405-20.896-22.381-27.633z"/><path fill="#fff" d="M289.565 23.87c-9.663-6.525-21.321-10.336-33.879-10.336-12.576 0-24.252 3.823-33.927 10.368-9.981 6.753-17.841 16.39-22.376 27.706a6.747 6.747 0 01-9.595 3.357c-4-2.277-8.324-4.06-12.886-5.264a54.233 54.233 0 00-13.848-1.771c-14.94 0-28.465 6.055-38.254 15.844-9.789 9.788-15.844 23.314-15.844 38.253 0 .531.009 1.06.024 1.587 11.968 37.443 64.654 50.485 88.356 13.656 4.852-7.541 8.515-6.025 13.131.909 19.741 29.642 52.48 29.107 81.426.702 8.824-8.659 13.433-8.097 24.918-.732 56.852 36.453 79.588-38.494 49.484-64.586-.982-.887-1.953-2.059-2.922-3.443a54.129 54.129 0 00-15.287-2.19c-4.813 0-9.425.606-13.768 1.744a53.72 53.72 0 00-12.416 4.969 6.75 6.75 0 01-9.956-3.14c-4.544-11.285-12.405-20.896-22.381-27.633z"/></svg>